<svg width="14" height="13" viewBox="0 0 14 13" fill="none" xmlns="http://www.w3.org/2000/svg">
<path d="M12.9372 11.1824C12.8366 11.283 12.7092 11.3299 12.5817 11.3299C12.4543 11.3299 12.3269 11.283 12.2262 11.1824L8.90625 7.86238L9.26173 7.5069L9.6172 7.15143L12.9372 10.4714C13.1317 10.6659 13.1317 10.9879 12.9372 11.1824Z" fill="white"/>
<path d="M3.50116 4.63624L7.39126 8.52634C7.65283 8.78791 7.65283 9.21046 7.39126 9.47203L6.78762 10.0824C6.24435 10.6189 5.38584 10.6189 4.84928 10.0824L1.93841 7.17151C1.40855 6.64165 1.40855 5.77644 1.93841 5.23987L2.54875 4.62953C2.81033 4.37466 3.23958 4.37466 3.50116 4.63624Z" fill="white"/>
<path d="M11.6304 5.24661L9.07497 7.79529C8.80668 8.06358 8.37743 8.06358 8.10915 7.79529L4.23246 3.91861C3.96418 3.65032 3.96418 3.22107 4.23246 2.95279L6.78786 0.397394C7.31771 -0.132465 8.18293 -0.132465 8.71949 0.397394L11.6304 3.30826C12.1602 3.84483 12.1602 4.70333 11.6304 5.24661Z" fill="white"/>
<path d="M4.52727 13H0.50303C0.22804 13 0 12.772 0 12.497C0 12.222 0.22804 11.994 0.50303 11.994H4.52727C4.80226 11.994 5.0303 12.222 5.0303 12.497C5.0303 12.772 4.80226 13 4.52727 13Z" fill="white"/>
</svg>
