<svg width="12" height="10" viewBox="0 0 12 10" fill="none" xmlns="http://www.w3.org/2000/svg">
<path d="M3.53247 8.14011e-05C3.88684 0.0101653 4.22996 0.068059 4.5624 0.173847H4.59559C4.61809 0.183847 4.63496 0.194899 4.64621 0.204899C4.77052 0.242267 4.88808 0.284371 5.00058 0.342265L5.21433 0.431737C5.2987 0.473842 5.39995 0.552261 5.4562 0.584366C5.51245 0.615418 5.57433 0.647523 5.62495 0.683838C6.24988 0.237004 7.00869 -0.00509763 7.79055 8.14011e-05C8.14549 8.14011e-05 8.49986 0.0470068 8.83679 0.152794C10.913 0.784363 11.6611 2.91591 11.0361 4.77903C10.6818 5.73112 10.1024 6.60006 9.3436 7.31004C8.25742 8.29424 7.0655 9.16791 5.78245 9.92053L5.64183 10L5.49558 9.91526C4.20803 9.16791 3.00935 8.29424 1.91305 7.30478C1.15931 6.59479 0.579378 5.73112 0.219382 4.77903C-0.416236 2.91591 0.331881 0.784363 2.43055 0.141742C2.59367 0.0891113 2.76186 0.0522698 2.9306 0.0317439H2.9981C3.15616 0.0101653 3.3131 8.14011e-05 3.4706 8.14011e-05H3.53247ZM8.54429 1.6633C8.31367 1.58909 8.06055 1.7054 7.97618 1.92645C7.89743 2.1475 8.02118 2.3896 8.25742 2.46802C8.61798 2.59433 8.85929 2.92643 8.85929 3.29432V3.31064C8.8486 3.43116 8.88742 3.54747 8.96617 3.63695C9.04491 3.72642 9.16304 3.77852 9.28679 3.78958C9.51741 3.78379 9.71428 3.61063 9.73116 3.38906V3.32643C9.74803 2.58907 9.27047 1.92119 8.54429 1.6633Z" fill="white"/>
</svg>
