<svg width="12" height="12" viewBox="0 0 12 12" fill="none" xmlns="http://www.w3.org/2000/svg">
<path d="M10.3427 2.14922H10.1027L8.07497 0.121484C7.91299 -0.0404948 7.64902 -0.0404948 7.48104 0.121484C7.31906 0.283464 7.31906 0.54743 7.48104 0.715408L8.91486 2.14922H3.0836L4.51742 0.715408C4.6794 0.553429 4.6794 0.289463 4.51742 0.121484C4.35544 -0.0404948 4.09148 -0.0404948 3.9235 0.121484L1.90176 2.14922H1.66179C1.12186 2.14922 0 2.14922 0 3.68503C0 4.26695 0.119985 4.6509 0.371952 4.90287C0.515934 5.05285 0.689912 5.13084 0.875888 5.17284C1.04987 5.21483 1.23584 5.22083 1.41582 5.22083H10.5826C10.7686 5.22083 10.9426 5.20883 11.1106 5.17284C11.6145 5.05285 11.9985 4.6929 11.9985 3.68503C11.9985 2.14922 10.8766 2.14922 10.3427 2.14922Z" fill="#8D8D8D"/>
<path d="M10.23 6.00076H1.72309C1.35114 6.00076 1.06917 6.33072 1.12917 6.69667L1.6331 9.78028C1.80108 10.8121 2.25102 12 4.24877 12H7.61434C9.63608 12 9.99603 10.9861 10.212 9.85227L10.8179 6.71467C10.8899 6.34272 10.608 6.00076 10.23 6.00076ZM5.16665 9.87027C5.16665 10.1042 4.98067 10.2902 4.7527 10.2902C4.51873 10.2902 4.33276 10.1042 4.33276 9.87027V7.89052C4.33276 7.66255 4.51873 7.47057 4.7527 7.47057C4.98067 7.47057 5.16665 7.66255 5.16665 7.89052V9.87027ZM7.73432 9.87027C7.73432 10.1042 7.54834 10.2902 7.31437 10.2902C7.0864 10.2902 6.89443 10.1042 6.89443 9.87027V7.89052C6.89443 7.66255 7.0864 7.47057 7.31437 7.47057C7.54834 7.47057 7.73432 7.66255 7.73432 7.89052V9.87027Z" fill="#8D8D8D"/>
</svg>
