<svg width="20" height="23" viewBox="0 0 20 23" fill="none" xmlns="http://www.w3.org/2000/svg">
<path d="M8.79998 17.6084V20.9084C8.79998 21.5134 8.30498 22.0084 7.69998 22.0084C7.09498 22.0084 6.59998 21.5134 6.59998 20.9084V17.6084H8.79998Z" fill="#191B1D"/>
<path d="M13.2 17.6084V20.9084C13.2 21.5134 12.705 22.0084 12.1 22.0084C11.495 22.0084 11 21.5134 11 20.9084V17.6084H13.2Z" fill="#191B1D"/>
<path d="M15.4 9.9085V15.4085C15.4 16.6185 14.41 17.6085 13.2 17.6085H6.60002C5.39002 17.6085 4.40002 16.6185 4.40002 15.4085V9.9085C4.40002 8.6985 5.39002 7.7085 6.60002 7.7085H13.2C14.41 7.7085 15.4 8.6985 15.4 9.9085Z" fill="#191B1D"/>
<path d="M2.2 9.90811V14.3081C2.2 14.9131 1.705 15.4081 1.1 15.4081C0.495 15.4081 0 14.9131 0 14.3081V9.90811C0 9.30311 0.495 8.80811 1.1 8.80811C1.705 8.80811 2.2 9.30311 2.2 9.90811Z" fill="#191B1D"/>
<path d="M19.8 9.90811V14.3081C19.8 14.9131 19.305 15.4081 18.7 15.4081C18.095 15.4081 17.6 14.9131 17.6 14.3081V9.90811C17.6 9.30311 18.095 8.80811 18.7 8.80811C19.305 8.80811 19.8 9.30311 19.8 9.90811Z" fill="#191B1D"/>
<path d="M7.25997 6.16831H12.54C13.508 6.16831 14.3 5.3763 14.3 4.4083C14.3 1.9773 12.331 0.00830078 9.9 0.00830078C7.469 0.00830078 5.5 1.9773 5.5 4.4083C5.5 5.3763 6.29197 6.16831 7.25997 6.16831Z" fill="#191B1D"/>
</svg>
