<svg width="19" height="23" viewBox="0 0 19 23" fill="none" xmlns="http://www.w3.org/2000/svg">
<path fill-rule="evenodd" clip-rule="evenodd" d="M13.4406 0.00830078C13.6166 1.21827 13.1216 2.41725 12.4726 3.25323C11.7797 4.15521 10.5697 4.85918 9.40371 4.81518C9.19471 3.64921 9.7337 2.45023 10.3937 1.64725C11.1307 0.767271 12.3736 0.0852989 13.4406 0.00830078Z" fill="white"/>
<path fill-rule="evenodd" clip-rule="evenodd" d="M17.0264 18.884C17.6754 17.894 17.9174 17.388 18.4124 16.277C14.7605 14.8911 14.1775 9.68819 17.7854 7.69724C16.6855 6.31127 15.1345 5.5083 13.6715 5.5083C12.6156 5.5083 11.8896 5.78331 11.2406 6.0363C10.6906 6.24529 10.1956 6.43227 9.57963 6.43227C8.91965 6.43227 8.33666 6.2233 7.72068 6.0033C7.04969 5.76131 6.34571 5.5083 5.46573 5.5083C3.82677 5.5083 2.07782 6.50928 0.966846 8.22523C-0.595115 10.6452 -0.320119 15.1771 2.19882 19.049C3.1008 20.4349 4.31076 21.9859 5.88372 22.0079C6.54371 22.0189 6.9727 21.8209 7.44568 21.6119C7.98467 21.3699 8.56765 21.1059 9.59063 21.1059C10.6136 21.0949 11.1856 21.3699 11.7246 21.6119C12.1866 21.8209 12.6046 22.0189 13.2535 22.0079C14.8485 21.9859 16.1245 20.2699 17.0264 18.884Z" fill="white"/>
</svg>
