<svg width="16" height="16" viewBox="0 0 16 16" fill="none" xmlns="http://www.w3.org/2000/svg">
<path opacity="0.4" d="M7.8999 9.39999C8.72833 9.39999 9.3999 8.72842 9.3999 7.89999C9.3999 7.07157 8.72833 6.39999 7.8999 6.39999C7.07148 6.39999 6.3999 7.07157 6.3999 7.89999C6.3999 8.72842 7.07148 9.39999 7.8999 9.39999Z" fill="white"/>
<path d="M14.2998 9.39999C15.1282 9.39999 15.7998 8.72842 15.7998 7.89999C15.7998 7.07157 15.1282 6.39999 14.2998 6.39999C13.4714 6.39999 12.7998 7.07157 12.7998 7.89999C12.7998 8.72842 13.4714 9.39999 14.2998 9.39999Z" fill="white"/>
<path d="M1.5 9.39999C2.32843 9.39999 3 8.72842 3 7.89999C3 7.07157 2.32843 6.39999 1.5 6.39999C0.671573 6.39999 0 7.07157 0 7.89999C0 8.72842 0.671573 9.39999 1.5 9.39999Z" fill="white"/>
<path d="M7.8999 3C8.72833 3 9.3999 2.32843 9.3999 1.5C9.3999 0.671573 8.72833 0 7.8999 0C7.07148 0 6.3999 0.671573 6.3999 1.5C6.3999 2.32843 7.07148 3 7.8999 3Z" fill="white"/>
<path d="M7.8999 15.8C8.72833 15.8 9.3999 15.1284 9.3999 14.3C9.3999 13.4716 8.72833 12.8 7.8999 12.8C7.07148 12.8 6.3999 13.4716 6.3999 14.3C6.3999 15.1284 7.07148 15.8 7.8999 15.8Z" fill="white"/>
<path opacity="0.4" d="M14.2998 3C15.1282 3 15.7998 2.32843 15.7998 1.5C15.7998 0.671573 15.1282 0 14.2998 0C13.4714 0 12.7998 0.671573 12.7998 1.5C12.7998 2.32843 13.4714 3 14.2998 3Z" fill="white"/>
<path opacity="0.4" d="M14.2998 15.8C15.1282 15.8 15.7998 15.1284 15.7998 14.3C15.7998 13.4716 15.1282 12.8 14.2998 12.8C13.4714 12.8 12.7998 13.4716 12.7998 14.3C12.7998 15.1284 13.4714 15.8 14.2998 15.8Z" fill="white"/>
<path opacity="0.4" d="M1.5 3C2.32843 3 3 2.32843 3 1.5C3 0.671573 2.32843 0 1.5 0C0.671573 0 0 0.671573 0 1.5C0 2.32843 0.671573 3 1.5 3Z" fill="white"/>
<path opacity="0.4" d="M1.5 15.8C2.32843 15.8 3 15.1284 3 14.3C3 13.4716 2.32843 12.8 1.5 12.8C0.671573 12.8 0 13.4716 0 14.3C0 15.1284 0.671573 15.8 1.5 15.8Z" fill="white"/>
</svg>
