<svg width="15" height="18" viewBox="0 0 15 18" fill="none" xmlns="http://www.w3.org/2000/svg">
<path d="M2.5 1.57495H12.4C13.225 1.57495 13.9 2.24995 13.9 3.07495V4.72495C13.9 5.32495 13.525 6.07495 13.15 6.44995L9.925 9.29995C9.475 9.67495 9.175 10.425 9.175 11.025V14.25C9.175 14.7 8.875 15.3 8.5 15.525L7.45 16.2C6.475 16.8 5.125 16.125 5.125 14.925V10.95C5.125 10.425 4.825 9.74995 4.525 9.37495L1.675 6.37495C1.3 5.99995 1 5.32495 1 4.87495V3.14995C1 2.24995 1.675 1.57495 2.5 1.57495Z" stroke="white" stroke-width="1.5" stroke-miterlimit="10" stroke-linecap="round" stroke-linejoin="round"/>
<path d="M6.6477 1.57495L2.9502 7.49995" stroke="white" stroke-width="1.5" stroke-miterlimit="10" stroke-linecap="round" stroke-linejoin="round"/>
</svg>
