<svg width="19" height="21" viewBox="0 0 19 21" fill="none" xmlns="http://www.w3.org/2000/svg">
<path d="M17.7082 11.4719L15.1222 13.1202C14.9455 13.2388 14.7315 13.1914 14.5827 13.0135L12.8433 10.7959C12.6572 10.5588 12.6572 10.1911 12.8433 9.95397L14.6106 7.70078C14.7502 7.5229 14.9734 7.47547 15.1501 7.59406L17.7082 9.23057C18.443 9.6812 18.443 11.0094 17.7082 11.4719Z" fill="white"/>
<path d="M13.3561 6.24449C13.6432 6.41419 13.6987 6.87805 13.4765 7.14957L11.9302 9.03888L11.2728 9.84215C11.0876 10.0684 10.8006 10.0684 10.6154 9.84215L4.00428 1.76442C3.63391 1.31188 4.06909 0.576532 4.54132 0.859365L13.3561 6.24449Z" fill="white"/>
<path d="M0.666626 19.4361V0.576844C0.666626 0.0790579 1.15737 -0.181167 1.45366 0.169547L9.57403 9.7972C9.76848 10.0235 9.75922 10.3968 9.56477 10.6231L1.4444 19.8547C1.14811 20.1941 0.666626 19.9339 0.666626 19.4361Z" fill="white"/>
<path d="M13.2358 14.1977L4.54132 19.515C4.06909 19.7979 3.63391 19.0625 4.00428 18.61L10.5321 10.6341C10.7172 10.4078 11.0043 10.4078 11.1895 10.6341L13.3654 13.2927C13.5784 13.5642 13.5135 14.028 13.2358 14.1977Z" fill="white"/>
</svg>
