<svg width="170" height="15" viewBox="0 0 170 15" fill="none" xmlns="http://www.w3.org/2000/svg">
<path fill-rule="evenodd" clip-rule="evenodd" d="M60.5954 1.58469C85.5757 0.470755 110.582 -0.11331 135.59 0.0182988C140.615 0.0447439 145.622 0.131122 150.625 0.217441C156.621 0.320898 162.613 0.42427 168.625 0.42427C169.064 0.42427 169.371 0.423081 169.555 0.422049C169.647 0.421534 169.709 0.421057 169.741 0.420789L169.748 0.42078L169.758 0.420713L169.762 0.420613L169.763 0.420606L169.764 0.420593L169.764 0.42059L169.765 0.420585L169.768 0.420553L169.77 0.420541L169.777 0.420574C170.261 0.885256 169.809 1.40476 169.784 1.40603L169.779 1.40614L169.778 1.40615L169.777 1.40617L169.775 1.40619L169.774 1.40619L169.774 1.40621L169.768 1.40625L169.76 1.40637C169.66 1.40759 169.107 1.4148 168.176 1.43877C156.686 1.7346 145.2 2.3685 133.717 3.06781C141.414 3.03823 149.105 3.03413 156.785 3.03413C162.264 3.03413 165.016 3.04223 165.54 3.05674C165.573 3.05766 165.603 3.05876 165.627 3.06028C165.635 3.06079 165.66 3.06229 165.686 3.06632C165.706 3.06972 165.776 3.08835 165.825 3.10842C166.038 3.3036 166.02 3.83487 165.817 4.00419C165.772 4.02227 165.707 4.03946 165.688 4.04276C165.677 4.04433 165.66 4.04635 165.652 4.04715C165.637 4.04859 165.622 4.04952 165.61 4.05016C165.585 4.05151 165.553 4.05271 165.517 4.05381C165.37 4.05827 165.092 4.06296 164.697 4.06792C163.902 4.07788 162.616 4.0891 160.902 4.10134C154.045 4.15028 140.333 4.21553 123.879 4.28077C120.474 4.29428 116.952 4.30778 113.348 4.32114C81.9861 6.1959 50.6181 7.66108 19.235 8.98552C16.5851 9.26563 13.9371 9.56153 11.2912 9.8741C11.2112 9.88355 11.1222 9.89466 11.0258 9.90723C13.0764 9.91961 15.1279 9.8924 17.1848 9.86511C18.8163 9.84346 20.4512 9.82177 22.0918 9.81976C24.0518 9.81736 26.0119 9.81606 27.9719 9.81477C46.8973 9.80231 65.8195 9.78984 84.7051 8.77652C89.2482 8.53275 93.7918 8.30563 98.3351 8.08278C100.021 7.9617 101.702 7.84616 103.375 7.73117C103.647 7.71245 103.919 7.69374 104.191 7.67503C104.649 7.6435 108.852 7.46683 111.586 7.3648C112.271 7.33924 112.867 7.31827 113.29 7.30536C113.501 7.29892 113.672 7.29443 113.79 7.29241C113.848 7.29141 113.898 7.29094 113.934 7.2913C113.95 7.29147 113.973 7.29185 113.995 7.2933L113.995 7.29334C114.003 7.29384 114.03 7.29565 114.062 7.30179C114.07 7.30323 114.126 7.31306 114.19 7.34494C114.231 7.3675 114.33 7.44953 114.382 7.51507C114.44 7.6363 114.45 7.90187 114.401 8.02665C114.356 8.09494 114.264 8.1836 114.226 8.20919C114.202 8.22276 114.161 8.24216 114.145 8.24885C114.113 8.26071 114.087 8.26678 114.078 8.26897C114.069 8.271 114.06 8.27267 114.053 8.27402C114.042 8.2761 114.032 8.27742 114.027 8.27814C114.017 8.27957 114.007 8.28084 113.996 8.28199C113.986 8.28311 113.976 8.28411 113.966 8.28499C113.926 8.28873 113.871 8.293 113.8 8.29784C113.658 8.30759 113.444 8.32056 113.147 8.33716C112.554 8.37039 111.627 8.41851 110.285 8.48495C107.873 8.60433 105.461 8.72184 103.05 8.83933C101.5 8.91488 99.9496 8.99043 98.3993 9.06647C87.1228 9.8766 75.676 10.9296 64.789 13.7089C67.0134 13.5365 69.2353 13.2498 71.4653 12.9621C72.9103 12.7757 74.3586 12.5889 75.8131 12.4324C76.0826 12.4034 76.3245 12.5993 76.3534 12.8699C76.3823 13.1406 76.1872 13.3835 75.9177 13.4125C74.5077 13.5642 73.0832 13.7478 71.6501 13.9326C68.5364 14.334 65.3824 14.7406 62.2493 14.836C61.7915 14.8499 61.4589 14.8442 61.2597 14.8045C61.2082 14.7942 61.1305 14.7754 61.0531 14.7351C60.991 14.7027 60.8025 14.5897 60.7659 14.3398C60.7299 14.0936 60.8739 13.9323 60.9197 13.8859C60.9788 13.8261 61.043 13.7866 61.0833 13.7638C61.2373 13.6766 61.4834 13.5945 61.7133 13.5239C61.96 13.4482 62.2521 13.3673 62.5343 13.2891L62.5371 13.2883C67.7161 11.8537 73.03 10.8329 78.3941 10.0657C61.5955 10.7784 44.7745 10.7894 27.9749 10.8004C26.0139 10.8017 24.0533 10.803 22.093 10.8054C20.4779 10.8074 18.8563 10.8289 17.2312 10.8504C13.8067 10.8957 10.3668 10.9413 6.94032 10.805C6.84133 10.8011 6.74801 10.7939 6.66858 10.7802C6.62969 10.7735 6.57848 10.7626 6.52535 10.743C6.48832 10.7294 6.37092 10.6845 6.27913 10.5666C6.22517 10.4972 6.17845 10.3999 6.17188 10.2806C6.16547 10.1639 6.19968 10.0683 6.23615 10.0027C6.29965 9.88849 6.39047 9.82732 6.42191 9.80681C6.49949 9.75621 6.58811 9.72269 6.64878 9.70157C6.85299 9.63048 7.19432 9.55079 7.58832 9.47106C5.22921 9.5683 2.87001 9.66493 0.510714 9.76107C0.239873 9.77211 0.0114025 9.56059 0.000411292 9.28863C-0.01058 9.01667 0.20007 8.78726 0.470911 8.77622C6.70244 8.52229 12.9331 8.26492 19.1631 8.00202C35.0936 6.31884 51.0913 5.20542 67.1161 4.46908C50.5657 4.51305 35.4457 4.54176 25.1536 4.54176C24.4121 4.54176 23.8517 4.53612 23.4574 4.52523C23.2606 4.51979 23.101 4.51294 22.9789 4.50444C22.8757 4.49725 22.7505 4.48642 22.6571 4.45936C22.6343 4.45275 22.5719 4.43406 22.5061 4.39102C22.463 4.36283 22.2293 4.19522 22.2855 3.8823C22.3088 3.75276 22.3759 3.66674 22.4185 3.62264C22.4618 3.57769 22.5046 3.55007 22.5297 3.53541C22.5793 3.50633 22.6252 3.49051 22.6478 3.48317C22.7339 3.45525 22.8497 3.43735 22.9513 3.42369C23.1791 3.39303 23.5369 3.35959 23.9989 3.32363C25.8532 3.17931 29.5549 2.98194 33.9868 2.7685C40.2042 2.46908 47.8768 2.1372 53.9452 1.87471C56.5326 1.76279 58.8284 1.66349 60.5954 1.58469ZM40.0477 7.09691C56.8784 5.80758 73.767 5.0578 90.6685 4.6221C73.7984 5.53286 56.9254 6.34384 40.0477 7.09691ZM115.675 3.19385C111.408 3.23946 107.141 3.298 102.874 3.37308C80.4264 3.45114 56.2969 3.51895 38.4663 3.54487C43.6555 3.30637 49.2968 3.06236 53.9837 2.85963C56.5723 2.74766 58.8697 2.64828 60.639 2.56939C85.6055 1.45606 110.596 0.872437 135.585 1.00395C140.228 1.02838 144.886 1.10477 149.548 1.18479C141.485 1.59271 133.426 2.09456 125.374 2.59595C122.376 2.78266 119.378 2.96931 116.382 3.15102C116.146 3.16532 115.91 3.1796 115.675 3.19385ZM61.5654 14.6224C61.5656 14.6222 61.5659 14.6221 61.5661 14.622C61.563 14.6239 61.5624 14.624 61.5654 14.6224ZM6.832 9.80823C6.83201 9.80822 6.83254 9.80832 6.83354 9.80854C6.83249 9.80835 6.83199 9.80824 6.832 9.80823Z" fill="#3771FE"/>
</svg>
