<svg width="427" height="298" viewBox="0 0 427 298" fill="none" xmlns="http://www.w3.org/2000/svg">
<path d="M425.294 159.426C425.294 192.02 401.734 221.687 363.294 243.25C324.878 264.799 271.755 278.152 213.035 278.152C154.315 278.152 101.192 264.799 62.7764 243.25C24.3361 221.687 0.776366 192.02 0.776366 159.426C0.776366 126.833 24.3361 97.1654 62.7764 75.6022C101.192 54.0529 154.315 40.7 213.035 40.7C271.755 40.7 324.878 54.0529 363.294 75.6022C401.734 97.1654 425.294 126.833 425.294 159.426Z" stroke="url(#paint0_linear_1855_3320)" stroke-width="1.55273"/>
<path d="M354.409 197.93C354.409 217.402 340.663 235.23 318.005 248.248C295.375 261.25 264.043 269.324 229.378 269.324C194.714 269.324 163.382 261.25 140.752 248.248C118.094 235.23 104.347 217.402 104.347 197.93C104.347 178.458 118.094 160.631 140.752 147.613C163.382 134.611 194.714 126.536 229.378 126.536C264.043 126.536 295.375 134.611 318.005 147.613C340.663 160.631 354.409 178.458 354.409 197.93Z" fill="url(#paint1_radial_1855_3320)" stroke="url(#paint2_linear_1855_3320)" stroke-width="2.07031"/>
<ellipse cx="234.579" cy="225.206" rx="64.8287" ry="36.3658" fill="url(#paint3_radial_1855_3320)" fill-opacity="0.6"/>
<g filter="url(#filter0_d_1855_3320)">
<path fill-rule="evenodd" clip-rule="evenodd" d="M234.578 261.573C279.977 261.573 316.781 241.809 316.781 217.429C316.781 193.049 279.977 173.285 234.578 173.285C189.179 173.285 152.376 193.049 152.376 217.429C152.376 241.809 189.179 261.573 234.578 261.573ZM234.579 261.572C270.382 261.572 299.407 245.291 299.407 225.206C299.407 205.122 270.382 188.841 234.579 188.841C198.775 188.841 169.75 205.122 169.75 225.206C169.75 245.291 198.775 261.572 234.579 261.572Z" fill="url(#paint4_radial_1855_3320)" fill-opacity="0.6" shape-rendering="crispEdges"/>
</g>
<g filter="url(#filter1_d_1855_3320)">
<path fill-rule="evenodd" clip-rule="evenodd" d="M234.579 265.508C299.427 265.508 351.996 236.019 351.996 199.642C351.996 163.266 299.427 133.777 234.579 133.777C169.731 133.777 117.161 163.266 117.161 199.642C117.161 236.019 169.731 265.508 234.579 265.508ZM234.579 261.572C279.978 261.572 316.781 241.808 316.781 217.428C316.781 193.049 279.978 173.285 234.579 173.285C189.179 173.285 152.376 193.049 152.376 217.428C152.376 241.808 189.179 261.572 234.579 261.572Z" fill="url(#paint5_radial_1855_3320)" shape-rendering="crispEdges"/>
</g>
<path fill-rule="evenodd" clip-rule="evenodd" d="M234.634 259.796C263.961 259.779 287.725 246.438 287.725 229.983C287.725 213.518 263.931 200.17 234.579 200.17C205.227 200.17 181.432 213.518 181.432 229.983C181.432 246.438 205.198 259.779 234.525 259.796C211.355 259.779 192.58 249.238 192.58 236.236C192.58 223.225 211.384 212.677 234.579 212.677C257.774 212.677 276.578 223.225 276.578 236.236C276.578 249.238 257.804 259.779 234.634 259.796Z" fill="url(#paint6_radial_1855_3320)"/>
<path d="M322.824 213.623C322.824 227.055 313.112 239.347 297.119 248.318C281.146 257.278 259.036 262.841 234.579 262.841C210.122 262.841 188.012 257.278 172.04 248.318C156.046 239.347 146.334 227.055 146.334 213.623C146.334 200.192 156.046 187.9 172.04 178.928C188.012 169.969 210.122 164.406 234.579 164.406C259.036 164.406 281.146 169.969 297.119 178.928C313.112 187.9 322.824 200.192 322.824 213.623Z" stroke="url(#paint7_linear_1855_3320)" stroke-width="1.29394"/>
<rect width="0.882767" height="0.882767" transform="matrix(0.707124 0.707089 -0.707124 0.707089 132.538 212.374)" fill="#00FFF0"/>
<rect x="141.923" y="229.977" width="1.78518" height="1.78518" transform="rotate(45 141.923 229.977)" fill="#00FFF0"/>
<rect width="0.829601" height="0.829601" transform="matrix(-0.707107 -0.707107 -0.707107 0.707107 174.592 231.239)" fill="#00FFF0"/>
<rect x="160.88" y="246.967" width="0.882767" height="0.882767" transform="rotate(45 160.88 246.967)" fill="#00FFF0"/>
<rect width="0.882767" height="0.882767" transform="matrix(0.707131 0.707082 -0.707131 0.707082 113.072 210.28)" fill="#00FFF0"/>
<rect width="0.882767" height="0.882767" transform="matrix(0.707131 0.707082 -0.707131 0.707082 117.787 180.527)" fill="#00FFF0" fill-opacity="0.5"/>
<rect x="131.289" y="197.895" width="0.616964" height="0.616964" transform="rotate(45 131.289 197.895)" fill="#00FFF0" fill-opacity="0.5"/>
<rect width="1.15106" height="1.15106" transform="matrix(0.70714 0.707074 -0.70714 0.707074 123.762 194.81)" fill="#00FFF0" fill-opacity="0.5"/>
<circle cx="248.693" cy="225.225" r="56.2776" fill="url(#paint8_radial_1855_3320)" fill-opacity="0.5"/>
<circle cx="248.693" cy="225.207" r="83.3612" fill="url(#paint9_radial_1855_3320)" fill-opacity="0.6"/>
<g filter="url(#filter2_d_1855_3320)">
<ellipse cx="248.693" cy="251.138" rx="44.3599" ry="27.7903" fill="url(#paint10_linear_1855_3320)" fill-opacity="0.5" shape-rendering="crispEdges"/>
<path d="M292.536 251.138C292.536 258.57 287.726 265.376 279.786 270.35C271.853 275.32 260.861 278.411 248.693 278.411C236.525 278.411 225.534 275.32 217.601 270.35C209.661 265.376 204.851 258.57 204.851 251.138C204.851 243.706 209.661 236.901 217.601 231.926C225.534 226.956 236.525 223.866 248.693 223.866C260.861 223.866 271.853 226.956 279.786 231.926C287.726 236.901 292.536 243.706 292.536 251.138Z" stroke="url(#paint11_linear_1855_3320)" stroke-opacity="0.6" stroke-width="1.03515" shape-rendering="crispEdges"/>
</g>
<circle cx="248.693" cy="225.225" r="56.2776" fill="url(#paint12_radial_1855_3320)"/>
<g filter="url(#filter3_d_1855_3320)">
<ellipse cx="248.693" cy="234.53" rx="55.0208" ry="32.1882" fill="url(#paint13_linear_1855_3320)" fill-opacity="0.5" shape-rendering="crispEdges"/>
</g>
<g filter="url(#filter4_d_1855_3320)">
<ellipse cx="248.693" cy="214.546" rx="54.4612" ry="31.4439" fill="url(#paint14_linear_1855_3320)" fill-opacity="0.5" shape-rendering="crispEdges"/>
<path d="M302.637 214.546C302.637 222.966 296.722 230.687 286.944 236.332C277.181 241.97 263.658 245.473 248.693 245.473C233.728 245.473 220.206 241.97 210.442 236.332C200.665 230.687 194.75 222.966 194.75 214.546C194.75 206.127 200.665 198.406 210.442 192.761C220.206 187.123 233.728 183.62 248.693 183.62C263.658 183.62 277.181 187.123 286.944 192.761C296.722 198.406 302.637 206.127 302.637 214.546Z" stroke="url(#paint15_linear_1855_3320)" stroke-opacity="0.6" stroke-width="1.03515" shape-rendering="crispEdges"/>
</g>
<g filter="url(#filter5_d_1855_3320)">
<ellipse cx="248.694" cy="188.821" rx="26.3039" ry="17.8283" fill="url(#paint16_linear_1855_3320)" fill-opacity="0.5" shape-rendering="crispEdges"/>
</g>
<circle cx="248.693" cy="225.225" r="41.686" fill="url(#paint17_radial_1855_3320)"/>
<g filter="url(#filter6_d_1855_3320)">
<path d="M290.435 198.309C290.435 205.618 285.851 212.305 278.294 217.19C270.742 222.071 260.278 225.107 248.692 225.107C237.107 225.107 226.643 222.071 219.091 217.19C211.533 212.305 206.95 205.618 206.95 198.309C206.95 191 211.533 184.313 219.091 179.428C226.643 174.547 237.107 171.511 248.692 171.511C260.278 171.511 270.742 174.547 278.294 179.428C285.851 184.313 290.435 191 290.435 198.309Z" stroke="url(#paint18_linear_1855_3320)" stroke-opacity="0.6" stroke-width="1.03515" shape-rendering="crispEdges"/>
</g>
<g filter="url(#filter7_d_1855_3320)">
<path d="M302.637 214.546C302.637 222.966 296.722 230.687 286.944 236.332C277.181 241.97 263.658 245.473 248.693 245.473C233.728 245.473 220.206 241.97 210.442 236.332C200.665 230.687 194.75 222.966 194.75 214.546C194.75 206.127 200.665 198.406 210.442 192.761C220.206 187.123 233.728 183.62 248.693 183.62C263.658 183.62 277.181 187.123 286.944 192.761C296.722 198.406 302.637 206.127 302.637 214.546Z" stroke="url(#paint19_linear_1855_3320)" stroke-opacity="0.6" stroke-width="1.03515" shape-rendering="crispEdges"/>
</g>
<g filter="url(#filter8_d_1855_3320)">
<path d="M303.196 234.53C303.196 243.159 297.214 251.066 287.337 256.844C277.473 262.615 263.811 266.201 248.693 266.201C233.575 266.201 219.913 262.615 210.049 256.844C200.172 251.066 194.19 243.159 194.19 234.53C194.19 225.901 200.172 217.995 210.049 212.216C219.913 206.445 233.575 202.859 248.693 202.859C263.811 202.859 277.473 206.445 287.337 212.216C297.214 217.995 303.196 225.901 303.196 234.53Z" stroke="url(#paint20_linear_1855_3320)" stroke-opacity="0.6" stroke-width="1.03515" shape-rendering="crispEdges"/>
</g>
<g filter="url(#filter9_d_1855_3320)">
<path d="M274.48 188.821C274.48 193.522 271.669 197.837 267.003 200.999C262.339 204.16 255.868 206.132 248.694 206.132C241.52 206.132 235.048 204.16 230.385 200.999C225.718 197.837 222.907 193.522 222.907 188.821C222.907 184.121 225.718 179.806 230.385 176.643C235.048 173.482 241.52 171.511 248.694 171.511C255.868 171.511 262.339 173.482 267.003 176.643C271.669 179.806 274.48 184.121 274.48 188.821Z" stroke="url(#paint21_linear_1855_3320)" stroke-opacity="0.6" stroke-width="1.03515" shape-rendering="crispEdges"/>
</g>
<circle cx="160.477" cy="188.841" r="31.9384" fill="url(#paint22_radial_1855_3320)" fill-opacity="0.6"/>
<g filter="url(#filter10_d_1855_3320)">
<ellipse cx="156.55" cy="197.707" rx="20.0689" ry="12.5726" fill="url(#paint23_linear_1855_3320)" fill-opacity="0.5" shape-rendering="crispEdges"/>
<path d="M176.102 197.707C176.102 200.937 174.011 203.938 170.466 206.159C166.929 208.375 162.011 209.762 156.55 209.762C151.09 209.762 146.171 208.375 142.634 206.159C139.09 203.938 136.999 200.937 136.999 197.707C136.999 194.478 139.09 191.476 142.634 189.256C146.171 187.04 151.09 185.652 156.55 185.652C162.011 185.652 166.929 187.04 170.466 189.256C174.011 191.476 176.102 194.478 176.102 197.707Z" stroke="url(#paint24_linear_1855_3320)" stroke-opacity="0.6" stroke-width="1.03515" shape-rendering="crispEdges"/>
</g>
<circle cx="156.55" cy="185.984" r="25.4606" fill="url(#paint25_radial_1855_3320)"/>
<g filter="url(#filter11_d_1855_3320)">
<ellipse cx="156.55" cy="190.193" rx="24.892" ry="14.5623" fill="url(#paint26_linear_1855_3320)" fill-opacity="0.5" shape-rendering="crispEdges"/>
<path d="M180.925 190.193C180.925 193.955 178.315 197.455 173.89 200.044C169.478 202.625 163.349 204.238 156.55 204.238C149.752 204.238 143.623 202.625 139.211 200.044C134.786 197.455 132.176 193.955 132.176 190.193C132.176 186.432 134.786 182.931 139.211 180.343C143.623 177.762 149.752 176.148 156.55 176.148C163.349 176.148 169.478 177.762 173.89 180.343C178.315 182.931 180.925 186.432 180.925 190.193Z" stroke="url(#paint27_linear_1855_3320)" stroke-opacity="0.6" stroke-width="1.03515" shape-rendering="crispEdges"/>
</g>
<circle cx="156.551" cy="185.984" r="18.8592" fill="url(#paint28_radial_1855_3320)"/>
<circle cx="156.551" cy="185.984" r="18.8592" fill="url(#paint29_radial_1855_3320)"/>
<g filter="url(#filter12_d_1855_3320)">
<ellipse cx="156.551" cy="181.153" rx="24.6388" ry="14.2255" fill="url(#paint30_linear_1855_3320)" fill-opacity="0.5" shape-rendering="crispEdges"/>
<path d="M180.672 181.153C180.672 184.818 178.095 188.234 173.715 190.763C169.348 193.285 163.281 194.861 156.551 194.861C149.822 194.861 143.754 193.285 139.388 190.763C135.007 188.234 132.43 184.818 132.43 181.153C132.43 177.488 135.007 174.071 139.388 171.542C143.754 169.021 149.822 167.445 156.551 167.445C163.281 167.445 169.348 169.021 173.715 171.542C178.095 174.071 180.672 177.488 180.672 181.153Z" stroke="url(#paint31_linear_1855_3320)" stroke-opacity="0.6" stroke-width="1.03515" shape-rendering="crispEdges"/>
</g>
<g filter="url(#filter13_d_1855_3320)">
<ellipse cx="156.55" cy="173.807" rx="19.119" ry="12.358" fill="url(#paint32_linear_1855_3320)" fill-opacity="0.5" shape-rendering="crispEdges"/>
<path d="M175.152 173.807C175.152 176.985 173.158 179.933 169.788 182.111C166.424 184.285 161.745 185.647 156.55 185.647C151.355 185.647 146.676 184.285 143.312 182.111C139.942 179.933 137.949 176.985 137.949 173.807C137.949 170.629 139.942 167.681 143.312 165.503C146.676 163.328 151.355 161.966 156.55 161.966C161.745 161.966 166.424 163.328 169.788 165.503C173.158 167.681 175.152 170.629 175.152 173.807Z" stroke="url(#paint33_linear_1855_3320)" stroke-opacity="0.6" stroke-width="1.03515" shape-rendering="crispEdges"/>
</g>
<g filter="url(#filter14_d_1855_3320)">
<ellipse cx="156.551" cy="169.515" rx="11.9002" ry="8.0657" fill="url(#paint34_linear_1855_3320)" fill-opacity="0.5" shape-rendering="crispEdges"/>
<path d="M167.933 169.515C167.933 171.519 166.735 173.393 164.675 174.789C162.618 176.184 159.747 177.063 156.551 177.063C153.354 177.063 150.484 176.184 148.426 174.789C146.367 173.393 145.168 171.519 145.168 169.515C145.168 167.51 146.367 165.636 148.426 164.24C150.484 162.845 153.354 161.966 156.551 161.966C159.747 161.966 162.618 162.845 164.675 164.24C166.735 165.636 167.933 167.51 167.933 169.515Z" stroke="url(#paint35_linear_1855_3320)" stroke-opacity="0.6" stroke-width="1.03515" shape-rendering="crispEdges"/>
</g>
<circle cx="156.55" cy="185.984" r="25.4606" fill="url(#paint36_radial_1855_3320)" fill-opacity="0.9"/>
<rect x="91.4667" y="95.3966" width="1.04594" height="1.04594" transform="rotate(45 91.4667 95.3966)" fill="#0066FF" fill-opacity="0.5"/>
<rect x="102.572" y="116.226" width="2.1124" height="2.1124" transform="rotate(45 102.572 116.226)" fill="#0066FF" fill-opacity="0.5"/>
<rect width="0.982945" height="0.982945" transform="matrix(-0.707129 -0.707085 -0.707129 0.707085 141.228 117.72)" fill="#0066FF" fill-opacity="0.5"/>
<rect x="125.004" y="136.331" width="1.04594" height="1.04594" transform="rotate(45 125.004 136.331)" fill="#0066FF" fill-opacity="0.5"/>
<rect x="68.4315" y="92.9183" width="1.04594" height="1.04594" transform="rotate(45 68.4315 92.9183)" fill="#0066FF" fill-opacity="0.5"/>
<rect x="74.0117" y="57.7125" width="1.04594" height="1.04594" transform="rotate(45 74.0117 57.7125)" fill="#0500FF" fill-opacity="0.5"/>
<rect width="0.730051" height="0.730051" transform="matrix(0.707077 0.707136 -0.707077 0.707136 89.9875 78.2642)" fill="#0500FF" fill-opacity="0.5"/>
<rect x="81.0828" y="74.6134" width="1.36204" height="1.36204" transform="rotate(45 81.0828 74.6134)" fill="#0500FF" fill-opacity="0.5"/>
<rect x="33.3826" y="214.916" width="1.45426" height="1.45426" transform="rotate(45 33.3826 214.916)" fill="#0066FF" fill-opacity="0.5"/>
<rect width="2.93706" height="2.93706" transform="matrix(0.707114 0.707099 -0.707114 0.707099 48.8228 243.877)" fill="#0066FF" fill-opacity="0.5"/>
<rect width="1.36668" height="1.36668" transform="matrix(-0.707107 -0.707107 -0.707107 0.707107 102.571 245.954)" fill="#0066FF" fill-opacity="0.5"/>
<rect width="1.45426" height="1.45426" transform="matrix(0.707122 0.707092 -0.707122 0.707092 80.012 271.831)" fill="#0066FF" fill-opacity="0.5"/>
<rect width="1.45426" height="1.45426" transform="matrix(0.707122 0.707092 -0.707122 0.707092 1.354 211.471)" fill="#0066FF" fill-opacity="0.5"/>
<rect x="9.11292" y="162.521" width="1.45426" height="1.45426" transform="rotate(45 9.11292 162.521)" fill="#0500FF" fill-opacity="0.5"/>
<rect x="31.326" y="191.096" width="1.01638" height="1.01638" transform="rotate(45 31.326 191.096)" fill="#0500FF" fill-opacity="0.5"/>
<rect width="1.89377" height="1.89377" transform="matrix(0.707118 0.707095 -0.707118 0.707095 18.9441 186.02)" fill="#0500FF" fill-opacity="0.5"/>
<rect x="349.696" y="134.988" width="1.2447" height="1.2447" transform="rotate(-32.8977 349.696 134.988)" fill="#0066FF" fill-opacity="0.5"/>
<rect x="376.703" y="127.263" width="2.51382" height="2.51382" transform="rotate(-32.8977 376.703 127.263)" fill="#0066FF" fill-opacity="0.5"/>
<rect width="1.16973" height="1.16973" transform="matrix(-0.839642 0.54314 0.54314 0.839642 388.086 82.6558)" fill="#0066FF" fill-opacity="0.5"/>
<rect width="1.2447" height="1.2447" transform="matrix(0.839667 -0.543102 0.543179 0.839617 405.693 106.178)" fill="#0066FF" fill-opacity="0.5"/>
<rect x="341.065" y="161.173" width="1.2447" height="1.2447" transform="rotate(-32.8977 341.065 161.173)" fill="#0066FF" fill-opacity="0.5"/>
<rect x="301.493" y="145.896" width="1.2447" height="1.2447" transform="rotate(-32.8977 301.493 145.896)" fill="#0500FF" fill-opacity="0.5"/>
<rect width="0.868783" height="0.868783" transform="matrix(0.839624 -0.543168 0.543113 0.83966 329.392 132.435)" fill="#0500FF" fill-opacity="0.5"/>
<rect width="1.62087" height="1.62087" transform="matrix(0.839652 -0.543126 0.543155 0.839632 322.922 141.885)" fill="#0500FF" fill-opacity="0.5"/>
<rect x="280.869" y="95.8289" width="2.51382" height="2.51382" transform="rotate(9.6901 280.869 95.8289)" fill="#0066FF" fill-opacity="0.5"/>
<rect width="1.16973" height="1.16973" transform="matrix(-0.985732 -0.168319 -0.168319 0.985733 319.437 70.69)" fill="#0066FF" fill-opacity="0.5"/>
<rect x="316.483" y="99.9234" width="1.2447" height="1.2447" transform="rotate(9.6901 316.483 99.9234)" fill="#0066FF" fill-opacity="0.5"/>
<rect x="231.684" y="96.6776" width="1.2447" height="1.2447" transform="rotate(9.6901 231.684 96.6776)" fill="#0066FF" fill-opacity="0.5"/>
<rect x="212.887" y="58.6514" width="1.2447" height="1.2447" transform="rotate(9.6901 212.887 58.6514)" fill="#0500FF" fill-opacity="0.5"/>
<rect width="0.868782" height="0.868783" transform="matrix(0.985735 0.168305 -0.168333 0.98573 242.538 67.6198)" fill="#0500FF" fill-opacity="0.5"/>
<rect x="231.379" y="70.1998" width="1.62087" height="1.62087" transform="rotate(9.6901 231.379 70.1998)" fill="#0500FF" fill-opacity="0.5"/>
<defs>
<filter id="filter0_d_1855_3320" x="149.788" y="165.521" width="179.932" height="103.815" filterUnits="userSpaceOnUse" color-interpolation-filters="sRGB">
<feFlood flood-opacity="0" result="BackgroundImageFix"/>
<feColorMatrix in="SourceAlpha" type="matrix" values="0 0 0 0 0 0 0 0 0 0 0 0 0 0 0 0 0 0 127 0" result="hardAlpha"/>
<feOffset dx="5.17577"/>
<feGaussianBlur stdDeviation="3.88183"/>
<feComposite in2="hardAlpha" operator="out"/>
<feColorMatrix type="matrix" values="0 0 0 0 0.119531 0 0 0 0 0.163828 0 0 0 0 0.5625 0 0 0 0.1 0"/>
<feBlend mode="normal" in2="BackgroundImageFix" result="effect1_dropShadow_1855_3320"/>
<feBlend mode="normal" in="SourceGraphic" in2="effect1_dropShadow_1855_3320" result="shape"/>
</filter>
<filter id="filter1_d_1855_3320" x="114.573" y="125.495" width="250.362" height="147.259" filterUnits="userSpaceOnUse" color-interpolation-filters="sRGB">
<feFlood flood-opacity="0" result="BackgroundImageFix"/>
<feColorMatrix in="SourceAlpha" type="matrix" values="0 0 0 0 0 0 0 0 0 0 0 0 0 0 0 0 0 0 127 0" result="hardAlpha"/>
<feOffset dx="5.17577" dy="-0.517577"/>
<feGaussianBlur stdDeviation="3.88183"/>
<feComposite in2="hardAlpha" operator="out"/>
<feColorMatrix type="matrix" values="0 0 0 0 0.119531 0 0 0 0 0.163828 0 0 0 0 0.5625 0 0 0 0.1 0"/>
<feBlend mode="normal" in2="BackgroundImageFix" result="effect1_dropShadow_1855_3320"/>
<feBlend mode="normal" in="SourceGraphic" in2="effect1_dropShadow_1855_3320" result="shape"/>
</filter>
<filter id="filter2_d_1855_3320" x="197.605" y="216.62" width="104.247" height="71.1079" filterUnits="userSpaceOnUse" color-interpolation-filters="sRGB">
<feFlood flood-opacity="0" result="BackgroundImageFix"/>
<feColorMatrix in="SourceAlpha" type="matrix" values="0 0 0 0 0 0 0 0 0 0 0 0 0 0 0 0 0 0 127 0" result="hardAlpha"/>
<feOffset dx="1.03515" dy="1.03515"/>
<feGaussianBlur stdDeviation="3.88183"/>
<feComposite in2="hardAlpha" operator="out"/>
<feColorMatrix type="matrix" values="0 0 0 0 0.440043 0 0 0 0 0.20092 0 0 0 0 0.679167 0 0 0 0.2 0"/>
<feBlend mode="normal" in2="BackgroundImageFix" result="effect1_dropShadow_1855_3320"/>
<feBlend mode="normal" in="SourceGraphic" in2="effect1_dropShadow_1855_3320" result="shape"/>
</filter>
<filter id="filter3_d_1855_3320" x="186.944" y="195.613" width="125.569" height="79.9038" filterUnits="userSpaceOnUse" color-interpolation-filters="sRGB">
<feFlood flood-opacity="0" result="BackgroundImageFix"/>
<feColorMatrix in="SourceAlpha" type="matrix" values="0 0 0 0 0 0 0 0 0 0 0 0 0 0 0 0 0 0 127 0" result="hardAlpha"/>
<feOffset dx="1.03515" dy="1.03515"/>
<feGaussianBlur stdDeviation="3.88183"/>
<feComposite in2="hardAlpha" operator="out"/>
<feColorMatrix type="matrix" values="0 0 0 0 0.440043 0 0 0 0 0.20092 0 0 0 0 0.679167 0 0 0 0.2 0"/>
<feBlend mode="normal" in2="BackgroundImageFix" result="effect1_dropShadow_1855_3320"/>
<feBlend mode="normal" in="SourceGraphic" in2="effect1_dropShadow_1855_3320" result="shape"/>
</filter>
<filter id="filter4_d_1855_3320" x="187.504" y="176.374" width="124.45" height="78.4151" filterUnits="userSpaceOnUse" color-interpolation-filters="sRGB">
<feFlood flood-opacity="0" result="BackgroundImageFix"/>
<feColorMatrix in="SourceAlpha" type="matrix" values="0 0 0 0 0 0 0 0 0 0 0 0 0 0 0 0 0 0 127 0" result="hardAlpha"/>
<feOffset dx="1.03515" dy="1.03515"/>
<feGaussianBlur stdDeviation="3.88183"/>
<feComposite in2="hardAlpha" operator="out"/>
<feColorMatrix type="matrix" values="0 0 0 0 0.440043 0 0 0 0 0.20092 0 0 0 0 0.679167 0 0 0 0.2 0"/>
<feBlend mode="normal" in2="BackgroundImageFix" result="effect1_dropShadow_1855_3320"/>
<feBlend mode="normal" in="SourceGraphic" in2="effect1_dropShadow_1855_3320" result="shape"/>
</filter>
<filter id="filter5_d_1855_3320" x="215.661" y="164.265" width="68.1351" height="51.1839" filterUnits="userSpaceOnUse" color-interpolation-filters="sRGB">
<feFlood flood-opacity="0" result="BackgroundImageFix"/>
<feColorMatrix in="SourceAlpha" type="matrix" values="0 0 0 0 0 0 0 0 0 0 0 0 0 0 0 0 0 0 127 0" result="hardAlpha"/>
<feOffset dx="1.03515" dy="1.03515"/>
<feGaussianBlur stdDeviation="3.88183"/>
<feComposite in2="hardAlpha" operator="out"/>
<feColorMatrix type="matrix" values="0 0 0 0 0.440043 0 0 0 0 0.20092 0 0 0 0 0.679167 0 0 0 0.2 0"/>
<feBlend mode="normal" in2="BackgroundImageFix" result="effect1_dropShadow_1855_3320"/>
<feBlend mode="normal" in="SourceGraphic" in2="effect1_dropShadow_1855_3320" result="shape"/>
</filter>
<filter id="filter6_d_1855_3320" x="199.704" y="164.265" width="100.048" height="70.1592" filterUnits="userSpaceOnUse" color-interpolation-filters="sRGB">
<feFlood flood-opacity="0" result="BackgroundImageFix"/>
<feColorMatrix in="SourceAlpha" type="matrix" values="0 0 0 0 0 0 0 0 0 0 0 0 0 0 0 0 0 0 127 0" result="hardAlpha"/>
<feOffset dx="1.03515" dy="1.03515"/>
<feGaussianBlur stdDeviation="3.88183"/>
<feComposite in2="hardAlpha" operator="out"/>
<feColorMatrix type="matrix" values="0 0 0 0 0.440043 0 0 0 0 0.20092 0 0 0 0 0.679167 0 0 0 0.2 0"/>
<feBlend mode="normal" in2="BackgroundImageFix" result="effect1_dropShadow_1855_3320"/>
<feBlend mode="normal" in="SourceGraphic" in2="effect1_dropShadow_1855_3320" result="shape"/>
</filter>
<filter id="filter7_d_1855_3320" x="187.504" y="176.374" width="124.45" height="78.4151" filterUnits="userSpaceOnUse" color-interpolation-filters="sRGB">
<feFlood flood-opacity="0" result="BackgroundImageFix"/>
<feColorMatrix in="SourceAlpha" type="matrix" values="0 0 0 0 0 0 0 0 0 0 0 0 0 0 0 0 0 0 127 0" result="hardAlpha"/>
<feOffset dx="1.03515" dy="1.03515"/>
<feGaussianBlur stdDeviation="3.88183"/>
<feComposite in2="hardAlpha" operator="out"/>
<feColorMatrix type="matrix" values="0 0 0 0 0.440043 0 0 0 0 0.20092 0 0 0 0 0.679167 0 0 0 0.2 0"/>
<feBlend mode="normal" in2="BackgroundImageFix" result="effect1_dropShadow_1855_3320"/>
<feBlend mode="normal" in="SourceGraphic" in2="effect1_dropShadow_1855_3320" result="shape"/>
</filter>
<filter id="filter8_d_1855_3320" x="186.944" y="195.613" width="125.569" height="79.9038" filterUnits="userSpaceOnUse" color-interpolation-filters="sRGB">
<feFlood flood-opacity="0" result="BackgroundImageFix"/>
<feColorMatrix in="SourceAlpha" type="matrix" values="0 0 0 0 0 0 0 0 0 0 0 0 0 0 0 0 0 0 127 0" result="hardAlpha"/>
<feOffset dx="1.03515" dy="1.03515"/>
<feGaussianBlur stdDeviation="3.88183"/>
<feComposite in2="hardAlpha" operator="out"/>
<feColorMatrix type="matrix" values="0 0 0 0 0.440043 0 0 0 0 0.20092 0 0 0 0 0.679167 0 0 0 0.2 0"/>
<feBlend mode="normal" in2="BackgroundImageFix" result="effect1_dropShadow_1855_3320"/>
<feBlend mode="normal" in="SourceGraphic" in2="effect1_dropShadow_1855_3320" result="shape"/>
</filter>
<filter id="filter9_d_1855_3320" x="215.661" y="164.265" width="68.1351" height="51.1839" filterUnits="userSpaceOnUse" color-interpolation-filters="sRGB">
<feFlood flood-opacity="0" result="BackgroundImageFix"/>
<feColorMatrix in="SourceAlpha" type="matrix" values="0 0 0 0 0 0 0 0 0 0 0 0 0 0 0 0 0 0 127 0" result="hardAlpha"/>
<feOffset dx="1.03515" dy="1.03515"/>
<feGaussianBlur stdDeviation="3.88183"/>
<feComposite in2="hardAlpha" operator="out"/>
<feColorMatrix type="matrix" values="0 0 0 0 0.440043 0 0 0 0 0.20092 0 0 0 0 0.679167 0 0 0 0.2 0"/>
<feBlend mode="normal" in2="BackgroundImageFix" result="effect1_dropShadow_1855_3320"/>
<feBlend mode="normal" in="SourceGraphic" in2="effect1_dropShadow_1855_3320" result="shape"/>
</filter>
<filter id="filter10_d_1855_3320" x="129.753" y="178.406" width="55.6651" height="40.6726" filterUnits="userSpaceOnUse" color-interpolation-filters="sRGB">
<feFlood flood-opacity="0" result="BackgroundImageFix"/>
<feColorMatrix in="SourceAlpha" type="matrix" values="0 0 0 0 0 0 0 0 0 0 0 0 0 0 0 0 0 0 127 0" result="hardAlpha"/>
<feOffset dx="1.03515" dy="1.03515"/>
<feGaussianBlur stdDeviation="3.88183"/>
<feComposite in2="hardAlpha" operator="out"/>
<feColorMatrix type="matrix" values="0 0 0 0 0.440043 0 0 0 0 0.20092 0 0 0 0 0.679167 0 0 0 0.2 0"/>
<feBlend mode="normal" in2="BackgroundImageFix" result="effect1_dropShadow_1855_3320"/>
<feBlend mode="normal" in="SourceGraphic" in2="effect1_dropShadow_1855_3320" result="shape"/>
</filter>
<filter id="filter11_d_1855_3320" x="124.93" y="168.902" width="65.3114" height="44.652" filterUnits="userSpaceOnUse" color-interpolation-filters="sRGB">
<feFlood flood-opacity="0" result="BackgroundImageFix"/>
<feColorMatrix in="SourceAlpha" type="matrix" values="0 0 0 0 0 0 0 0 0 0 0 0 0 0 0 0 0 0 127 0" result="hardAlpha"/>
<feOffset dx="1.03515" dy="1.03515"/>
<feGaussianBlur stdDeviation="3.88183"/>
<feComposite in2="hardAlpha" operator="out"/>
<feColorMatrix type="matrix" values="0 0 0 0 0.440043 0 0 0 0 0.20092 0 0 0 0 0.679167 0 0 0 0.2 0"/>
<feBlend mode="normal" in2="BackgroundImageFix" result="effect1_dropShadow_1855_3320"/>
<feBlend mode="normal" in="SourceGraphic" in2="effect1_dropShadow_1855_3320" result="shape"/>
</filter>
<filter id="filter12_d_1855_3320" x="125.184" y="160.199" width="64.805" height="43.9784" filterUnits="userSpaceOnUse" color-interpolation-filters="sRGB">
<feFlood flood-opacity="0" result="BackgroundImageFix"/>
<feColorMatrix in="SourceAlpha" type="matrix" values="0 0 0 0 0 0 0 0 0 0 0 0 0 0 0 0 0 0 127 0" result="hardAlpha"/>
<feOffset dx="1.03515" dy="1.03515"/>
<feGaussianBlur stdDeviation="3.88183"/>
<feComposite in2="hardAlpha" operator="out"/>
<feColorMatrix type="matrix" values="0 0 0 0 0.440043 0 0 0 0 0.20092 0 0 0 0 0.679167 0 0 0 0.2 0"/>
<feBlend mode="normal" in2="BackgroundImageFix" result="effect1_dropShadow_1855_3320"/>
<feBlend mode="normal" in="SourceGraphic" in2="effect1_dropShadow_1855_3320" result="shape"/>
</filter>
<filter id="filter13_d_1855_3320" x="130.703" y="154.72" width="53.7654" height="40.2434" filterUnits="userSpaceOnUse" color-interpolation-filters="sRGB">
<feFlood flood-opacity="0" result="BackgroundImageFix"/>
<feColorMatrix in="SourceAlpha" type="matrix" values="0 0 0 0 0 0 0 0 0 0 0 0 0 0 0 0 0 0 127 0" result="hardAlpha"/>
<feOffset dx="1.03515" dy="1.03515"/>
<feGaussianBlur stdDeviation="3.88183"/>
<feComposite in2="hardAlpha" operator="out"/>
<feColorMatrix type="matrix" values="0 0 0 0 0.440043 0 0 0 0 0.20092 0 0 0 0 0.679167 0 0 0 0.2 0"/>
<feBlend mode="normal" in2="BackgroundImageFix" result="effect1_dropShadow_1855_3320"/>
<feBlend mode="normal" in="SourceGraphic" in2="effect1_dropShadow_1855_3320" result="shape"/>
</filter>
<filter id="filter14_d_1855_3320" x="137.922" y="154.72" width="39.3276" height="31.6587" filterUnits="userSpaceOnUse" color-interpolation-filters="sRGB">
<feFlood flood-opacity="0" result="BackgroundImageFix"/>
<feColorMatrix in="SourceAlpha" type="matrix" values="0 0 0 0 0 0 0 0 0 0 0 0 0 0 0 0 0 0 127 0" result="hardAlpha"/>
<feOffset dx="1.03515" dy="1.03515"/>
<feGaussianBlur stdDeviation="3.88183"/>
<feComposite in2="hardAlpha" operator="out"/>
<feColorMatrix type="matrix" values="0 0 0 0 0.440043 0 0 0 0 0.20092 0 0 0 0 0.679167 0 0 0 0.2 0"/>
<feBlend mode="normal" in2="BackgroundImageFix" result="effect1_dropShadow_1855_3320"/>
<feBlend mode="normal" in="SourceGraphic" in2="effect1_dropShadow_1855_3320" result="shape"/>
</filter>
<linearGradient id="paint0_linear_1855_3320" x1="134.655" y1="361.778" x2="190.587" y2="91.5675" gradientUnits="userSpaceOnUse">
<stop stop-color="white"/>
<stop offset="0.508554" stop-color="#30FFFF"/>
<stop offset="1" stop-color="white" stop-opacity="0"/>
</linearGradient>
<radialGradient id="paint1_radial_1855_3320" cx="0" cy="0" r="1" gradientUnits="userSpaceOnUse" gradientTransform="translate(107.35 264.628) rotate(-45.6853) scale(135.621 241.7)">
<stop stop-color="white"/>
<stop offset="0.462474" stop-color="#3A45AA"/>
<stop offset="1" stop-color="#3A45AA" stop-opacity="0"/>
</radialGradient>
<linearGradient id="paint2_linear_1855_3320" x1="165.239" y1="267.532" x2="230.215" y2="159.798" gradientUnits="userSpaceOnUse">
<stop stop-color="white"/>
<stop offset="0.442828" stop-color="#30FFFF"/>
<stop offset="1" stop-color="white" stop-opacity="0"/>
</linearGradient>
<radialGradient id="paint3_radial_1855_3320" cx="0" cy="0" r="1" gradientUnits="userSpaceOnUse" gradientTransform="translate(268.324 191.834) rotate(141.315) scale(94.292 168.093)">
<stop offset="0.39201" stop-color="#1B29A4" stop-opacity="0"/>
<stop offset="0.841913" stop-color="#2938BB" stop-opacity="0.5"/>
<stop offset="1" stop-color="#172075" stop-opacity="0.5"/>
</radialGradient>
<radialGradient id="paint4_radial_1855_3320" cx="0" cy="0" r="1" gradientUnits="userSpaceOnUse" gradientTransform="translate(277.367 176.919) rotate(141.571) scale(131.087 231.591)">
<stop offset="0.39201" stop-color="#6675FF" stop-opacity="0"/>
<stop offset="0.841913" stop-color="#6675FF" stop-opacity="0.5"/>
<stop offset="1" stop-color="#192059" stop-opacity="0"/>
</radialGradient>
<radialGradient id="paint5_radial_1855_3320" cx="0" cy="0" r="1" gradientUnits="userSpaceOnUse" gradientTransform="translate(295.698 139.199) rotate(140.348) scale(190.513 339.623)">
<stop offset="0.39201" stop-color="#6675FF" stop-opacity="0"/>
<stop offset="0.841913" stop-color="#6675FF" stop-opacity="0.5"/>
<stop offset="1" stop-color="#DBDEFF" stop-opacity="0"/>
</radialGradient>
<radialGradient id="paint6_radial_1855_3320" cx="0" cy="0" r="1" gradientUnits="userSpaceOnUse" gradientTransform="translate(262.243 202.624) rotate(141.315) scale(77.3005 137.802)">
<stop offset="0.39201" stop-color="#17217A" stop-opacity="0"/>
<stop offset="0.841913" stop-color="#1A2374" stop-opacity="0.5"/>
<stop offset="1" stop-color="#151E6C" stop-opacity="0.5"/>
</radialGradient>
<linearGradient id="paint7_linear_1855_3320" x1="189.353" y1="261.541" x2="226.631" y2="162.109" gradientUnits="userSpaceOnUse">
<stop stop-color="white"/>
<stop offset="0.508554" stop-color="#30FFFF"/>
<stop offset="1" stop-color="white" stop-opacity="0"/>
</linearGradient>
<radialGradient id="paint8_radial_1855_3320" cx="0" cy="0" r="1" gradientUnits="userSpaceOnUse" gradientTransform="translate(226.091 288.611) rotate(-64.0757) scale(126.333)">
<stop offset="0.107416" stop-color="white" stop-opacity="0.5"/>
<stop offset="0.328407" stop-color="#8FB5FF" stop-opacity="0.5"/>
<stop offset="0.629496" stop-color="#220C7A" stop-opacity="0"/>
</radialGradient>
<radialGradient id="paint9_radial_1855_3320" cx="0" cy="0" r="1" gradientUnits="userSpaceOnUse" gradientTransform="translate(248.693 225.207) rotate(90) scale(83.3612)">
<stop stop-color="#3E5DFF"/>
<stop offset="1" stop-color="#3E5DFF" stop-opacity="0"/>
</radialGradient>
<linearGradient id="paint10_linear_1855_3320" x1="293.053" y1="245.123" x2="204.361" y2="251.525" gradientUnits="userSpaceOnUse">
<stop stop-color="#4E53BE" stop-opacity="0.5"/>
<stop offset="0.885417" stop-color="#33CEFF" stop-opacity="0.7"/>
<stop offset="1" stop-color="white" stop-opacity="0.5"/>
</linearGradient>
<linearGradient id="paint11_linear_1855_3320" x1="256.447" y1="290.995" x2="261.977" y2="229.503" gradientUnits="userSpaceOnUse">
<stop stop-color="white"/>
<stop offset="1" stop-color="white" stop-opacity="0"/>
</linearGradient>
<radialGradient id="paint12_radial_1855_3320" cx="0" cy="0" r="1" gradientUnits="userSpaceOnUse" gradientTransform="translate(192.415 245.698) rotate(-19.6638) scale(119.525)">
<stop offset="0.249306" stop-color="white"/>
<stop offset="0.48315" stop-color="#8FF2FF" stop-opacity="0.5"/>
<stop offset="0.627037" stop-color="#220C7A" stop-opacity="0.1"/>
</radialGradient>
<linearGradient id="paint13_linear_1855_3320" x1="298.058" y1="232.669" x2="193.718" y2="235.981" gradientUnits="userSpaceOnUse">
<stop stop-color="#4E53BE" stop-opacity="0.1"/>
<stop offset="1" stop-color="#33CEFF"/>
</linearGradient>
<linearGradient id="paint14_linear_1855_3320" x1="289.988" y1="211.75" x2="194.3" y2="216.054" gradientUnits="userSpaceOnUse">
<stop stop-color="#4E53BE" stop-opacity="0.1"/>
<stop offset="0.997187" stop-color="#33CEFF"/>
</linearGradient>
<linearGradient id="paint15_linear_1855_3320" x1="258.212" y1="259.643" x2="263.986" y2="189.983" gradientUnits="userSpaceOnUse">
<stop stop-color="white"/>
<stop offset="1" stop-color="white" stop-opacity="0"/>
</linearGradient>
<linearGradient id="paint16_linear_1855_3320" x1="274.998" y1="184.962" x2="222.367" y2="188.474" gradientUnits="userSpaceOnUse">
<stop stop-color="#4E53BE" stop-opacity="0.1"/>
<stop offset="1" stop-color="#33CEFF" stop-opacity="0.9"/>
</linearGradient>
<radialGradient id="paint17_radial_1855_3320" cx="0" cy="0" r="1" gradientUnits="userSpaceOnUse" gradientTransform="translate(256.816 303.795) rotate(-83.1976) scale(121.108)">
<stop offset="0.338542" stop-color="#68FFF6" stop-opacity="0.1"/>
<stop offset="0.802083" stop-color="#FFBFE9"/>
<stop offset="1" stop-color="white"/>
</radialGradient>
<linearGradient id="paint18_linear_1855_3320" x1="253.484" y1="225.625" x2="256.308" y2="176.09" gradientUnits="userSpaceOnUse">
<stop stop-color="white"/>
<stop offset="1" stop-color="white" stop-opacity="0"/>
</linearGradient>
<linearGradient id="paint19_linear_1855_3320" x1="251.399" y1="246.815" x2="257.848" y2="188.116" gradientUnits="userSpaceOnUse">
<stop stop-color="white"/>
<stop offset="1" stop-color="white" stop-opacity="0"/>
</linearGradient>
<linearGradient id="paint20_linear_1855_3320" x1="252.703" y1="267.794" x2="253.79" y2="206.023" gradientUnits="userSpaceOnUse">
<stop stop-color="white"/>
<stop offset="1" stop-color="white" stop-opacity="0"/>
</linearGradient>
<linearGradient id="paint21_linear_1855_3320" x1="253.291" y1="214.391" x2="257.124" y2="174.996" gradientUnits="userSpaceOnUse">
<stop stop-color="white"/>
<stop offset="1" stop-color="white" stop-opacity="0"/>
</linearGradient>
<radialGradient id="paint22_radial_1855_3320" cx="0" cy="0" r="1" gradientUnits="userSpaceOnUse" gradientTransform="translate(160.477 188.841) rotate(90) scale(31.9384)">
<stop stop-color="#FF65C1"/>
<stop offset="1" stop-color="#FF65C1" stop-opacity="0"/>
</radialGradient>
<linearGradient id="paint23_linear_1855_3320" x1="176.619" y1="194.986" x2="136.494" y2="197.882" gradientUnits="userSpaceOnUse">
<stop stop-color="#4E53BE" stop-opacity="0.5"/>
<stop offset="0.885417" stop-color="#FB33FF" stop-opacity="0.5"/>
<stop offset="1" stop-color="white" stop-opacity="0.5"/>
</linearGradient>
<linearGradient id="paint24_linear_1855_3320" x1="160.058" y1="215.739" x2="162.56" y2="187.919" gradientUnits="userSpaceOnUse">
<stop stop-color="white"/>
<stop offset="1" stop-color="white" stop-opacity="0"/>
</linearGradient>
<radialGradient id="paint25_radial_1855_3320" cx="0" cy="0" r="1" gradientUnits="userSpaceOnUse" gradientTransform="translate(131.09 195.245) rotate(-19.6638) scale(54.0746)">
<stop offset="0.249306" stop-color="white"/>
<stop offset="0.48315" stop-color="#FF8FED" stop-opacity="0.5"/>
<stop offset="0.627037" stop-color="#220C7A" stop-opacity="0.5"/>
</radialGradient>
<linearGradient id="paint26_linear_1855_3320" x1="181.442" y1="187.041" x2="131.712" y2="190.885" gradientUnits="userSpaceOnUse">
<stop stop-color="#4E53BE" stop-opacity="0.5"/>
<stop offset="0.885417" stop-color="#FB33FF" stop-opacity="0.5"/>
<stop offset="1" stop-color="white" stop-opacity="0.5"/>
</linearGradient>
<linearGradient id="paint27_linear_1855_3320" x1="160.901" y1="211.079" x2="163.61" y2="178.823" gradientUnits="userSpaceOnUse">
<stop stop-color="white"/>
<stop offset="1" stop-color="white" stop-opacity="0"/>
</linearGradient>
<radialGradient id="paint28_radial_1855_3320" cx="0" cy="0" r="1" gradientUnits="userSpaceOnUse" gradientTransform="translate(162.612 204.843) rotate(-107.749) scale(37.883)">
<stop offset="0.223958" stop-color="white"/>
<stop offset="0.466382" stop-color="#FFCEF1"/>
<stop offset="0.682292" stop-color="#B6B9FF"/>
<stop offset="0.881791" stop-color="white"/>
</radialGradient>
<radialGradient id="paint29_radial_1855_3320" cx="0" cy="0" r="1" gradientUnits="userSpaceOnUse" gradientTransform="translate(165.869 204.843) rotate(-100.377) scale(51.7316)">
<stop stop-color="white"/>
<stop offset="1" stop-color="white" stop-opacity="0"/>
</radialGradient>
<linearGradient id="paint30_linear_1855_3320" x1="181.19" y1="178.074" x2="131.973" y2="181.928" gradientUnits="userSpaceOnUse">
<stop stop-color="#4E53BE" stop-opacity="0.5"/>
<stop offset="0.885417" stop-color="#FB33FF" stop-opacity="0.5"/>
<stop offset="1" stop-color="white" stop-opacity="0.5"/>
</linearGradient>
<linearGradient id="paint31_linear_1855_3320" x1="160.857" y1="201.555" x2="163.469" y2="170.04" gradientUnits="userSpaceOnUse">
<stop stop-color="white"/>
<stop offset="1" stop-color="white" stop-opacity="0"/>
</linearGradient>
<linearGradient id="paint32_linear_1855_3320" x1="175.669" y1="171.132" x2="137.431" y2="173.807" gradientUnits="userSpaceOnUse">
<stop stop-color="#4E53BE" stop-opacity="0.5"/>
<stop offset="0.885417" stop-color="#FB33FF" stop-opacity="0.5"/>
<stop offset="1" stop-color="white" stop-opacity="0.5"/>
</linearGradient>
<linearGradient id="paint33_linear_1855_3320" x1="159.892" y1="191.531" x2="162.428" y2="164.2" gradientUnits="userSpaceOnUse">
<stop stop-color="white"/>
<stop offset="1" stop-color="white" stop-opacity="0"/>
</linearGradient>
<linearGradient id="paint34_linear_1855_3320" x1="168.451" y1="167.769" x2="144.64" y2="169.357" gradientUnits="userSpaceOnUse">
<stop stop-color="#4E53BE" stop-opacity="0.5"/>
<stop offset="0.885417" stop-color="#FB33FF" stop-opacity="0.5"/>
<stop offset="1" stop-color="white" stop-opacity="0.5"/>
</linearGradient>
<linearGradient id="paint35_linear_1855_3320" x1="158.631" y1="181.082" x2="160.365" y2="163.26" gradientUnits="userSpaceOnUse">
<stop stop-color="white"/>
<stop offset="1" stop-color="white" stop-opacity="0"/>
</linearGradient>
<radialGradient id="paint36_radial_1855_3320" cx="0" cy="0" r="1" gradientUnits="userSpaceOnUse" gradientTransform="translate(146.325 214.66) rotate(-65.1363) scale(80.2854)">
<stop offset="0.249306" stop-color="white"/>
<stop offset="0.48315" stop-color="#FF8FED" stop-opacity="0.5"/>
<stop offset="0.627037" stop-color="#220C7A" stop-opacity="0"/>
</radialGradient>
</defs>
</svg>
