<svg width="18" height="14" viewBox="0 0 18 14" fill="none" xmlns="http://www.w3.org/2000/svg">
<path d="M2.4751 11.6099V1.88998C2.4751 0.539994 3.05109 0 4.48208 0H5.41807C6.84905 0 7.42504 0.539994 7.42504 1.88998V11.6099C7.42504 12.9599 6.84905 13.4999 5.41807 13.4999H4.48208C3.05109 13.4999 2.4751 12.9599 2.4751 11.6099Z" fill="white"/>
<path d="M2.47497 7.42481H0.674993C0.305997 7.42481 0 7.11882 0 6.74982C0 6.38083 0.305997 6.07483 0.674993 6.07483H2.47497V7.42481Z" fill="white"/>
<path d="M10.1248 6.07483H7.4248V7.42481H10.1248V6.07483Z" fill="white"/>
<path d="M17.3252 7.42481H15.0752V6.07483H17.3252C17.6942 6.07483 18.0002 6.38083 18.0002 6.74982C18.0002 7.11882 17.6942 7.42481 17.3252 7.42481Z" fill="white"/>
<path opacity="0.6" d="M10.125 9.80996V3.69003C10.125 2.34004 10.701 1.80005 12.132 1.80005H13.068C14.499 1.80005 15.0749 2.34004 15.0749 3.69003V9.80996C15.0749 11.1599 14.499 11.6999 13.068 11.6999H12.132C10.701 11.6999 10.125 11.1599 10.125 9.80996Z" fill="white"/>
</svg>
