<svg width="19" height="18" viewBox="0 0 19 18" fill="none" xmlns="http://www.w3.org/2000/svg">
<path d="M18.6378 7.5204L17.7094 11.4802C16.9137 14.9001 15.3411 16.2832 12.3854 15.999C11.9118 15.9611 11.4002 15.8758 10.8508 15.7432L9.25927 15.3643C5.30891 14.4264 4.08686 12.4749 5.01524 8.51509L5.94362 4.54579C6.13309 3.74056 6.36045 3.03954 6.64464 2.46167C7.75302 0.169139 9.6382 -0.446624 12.8023 0.301765L14.3843 0.671223C18.3536 1.5996 19.5662 3.56057 18.6378 7.5204Z" fill="white"/>
<path opacity="0.6" d="M12.3854 15.999C11.798 16.3969 11.0591 16.7284 10.1592 17.0221L8.66237 17.5147C4.90148 18.7273 2.92157 17.7136 1.69952 13.9527L0.486939 10.2108C-0.72564 6.44992 0.278526 4.46053 4.03942 3.24795L5.53619 2.75534C5.9246 2.63219 6.29405 2.52798 6.64457 2.46167C6.36037 3.03954 6.13301 3.74056 5.94354 4.54579L5.01516 8.51509C4.08678 12.4749 5.30883 14.4264 9.25919 15.3643L10.8507 15.7432C11.4001 15.8758 11.9117 15.9611 12.3854 15.999Z" fill="white"/>
</svg>
