<svg width="18" height="19" viewBox="0 0 18 19" fill="none" xmlns="http://www.w3.org/2000/svg">
<path opacity="0.6" d="M14.9167 15.5C14.75 15.5 14.5833 15.4167 14.5 15.3333C14.25 15.0833 14.25 14.6667 14.5 14.4167C15.9167 13 16.6667 11.0833 16.6667 9C16.6667 4.75 13.25 1.33333 9 1.33333C4.75 1.33333 1.33333 4.75 1.33333 9C1.33333 11 2.08333 12.9167 3.5 14.4167C3.75 14.6667 3.75 15.0833 3.5 15.3333C3.25 15.5833 2.83333 15.5833 2.58333 15.3333C0.916667 13.6667 0 11.4167 0 9.08333C0 4.08333 4.08333 0 9 0C13.9167 0 18 4 18 9C18 11.3333 17.0833 13.5833 15.4167 15.25C15.25 15.4167 15.0833 15.5 14.9167 15.5Z" fill="white"/>
<path d="M9 18.5834C10.6569 18.5834 12 17.2402 12 15.5834C12 13.9265 10.6569 12.5834 9 12.5834C7.34315 12.5834 6 13.9265 6 15.5834C6 17.2402 7.34315 18.5834 9 18.5834Z" fill="white"/>
<path d="M10.6665 6.66675C9.5665 6.66675 8.6665 7.56675 8.6665 8.66675V9.46675C8.6665 10.1667 9.2665 10.6667 9.8665 10.6667H10.6665C11.7665 10.6667 12.6665 9.76675 12.6665 8.66675C12.6665 7.56675 11.7665 6.66675 10.6665 6.66675Z" fill="white"/>
</svg>
