<svg width="17" height="18" viewBox="0 0 17 18" fill="none" xmlns="http://www.w3.org/2000/svg">
<path d="M6.4624 7.50537V14.7688C6.4624 16.5509 5.00431 18 3.2312 18C1.44909 18 0 16.5509 0 14.7688C0 12.9957 1.44909 11.5466 3.2312 11.5466C3.97824 11.5466 4.65329 11.8076 5.20232 12.2307V7.86539L6.4624 7.50537Z" fill="white"/>
<path d="M16.0024 4.78711V13.0316C16.0024 14.8137 14.5533 16.2628 12.7712 16.2628C10.9981 16.2628 9.54004 14.8137 9.54004 13.0316C9.54004 11.2585 10.9981 9.80942 12.7712 9.80942C13.5273 9.80942 14.2023 10.0704 14.7514 10.5025V5.14713L16.0024 4.78711Z" fill="white"/>
<path opacity="0.6" d="M16.0023 2.86092V4.78704L5.20166 7.86523V4.27401C5.20166 2.95093 6.00271 1.92486 7.27179 1.58284L12.4741 0.160754C13.5272 -0.127264 14.4182 -0.0282576 15.0483 0.457772C15.6873 0.934802 16.0023 1.74485 16.0023 2.86092Z" fill="white"/>
</svg>
