<svg width="19" height="20" viewBox="0 0 19 20" fill="none" xmlns="http://www.w3.org/2000/svg">
<path d="M2.3216 8.51562H1.39296C0.622188 8.51562 0 9.13781 0 9.90858V10.8372C0 11.608 0.622188 12.2302 1.39296 12.2302H2.3216C3.09237 12.2302 3.71455 11.608 3.71455 10.8372V9.90858C3.71455 9.13781 3.08308 8.51562 2.3216 8.51562Z" fill="white"/>
<path d="M9.98273 0H9.05409C8.28332 0 7.66113 0.622188 7.66113 1.39296V2.3216C7.66113 3.09237 8.28332 3.71455 9.05409 3.71455H9.98273C10.7535 3.71455 11.3757 3.09237 11.3757 2.3216V1.39296C11.3757 0.622188 10.7535 0 9.98273 0Z" fill="white"/>
<path d="M17.6072 8.51562H16.6786C15.9078 8.51562 15.2856 9.13781 15.2856 9.90858V10.8372C15.2856 11.608 15.9078 12.2302 16.6786 12.2302H17.6072C18.378 12.2302 19.0002 11.608 19.0002 10.8372V9.90858C19.0002 9.13781 18.378 8.51562 17.6072 8.51562Z" fill="white"/>
<path opacity="0.6" d="M1.83808 9.67644C1.45734 9.67644 1.1416 9.3607 1.1416 8.97996C1.1416 5.01467 4.11325 1.68088 8.05067 1.21656C8.42213 1.17941 8.77501 1.44869 8.82144 1.82943C8.86788 2.21017 8.58928 2.55379 8.20854 2.60022C4.97688 2.98096 2.53456 5.72044 2.53456 8.97996C2.53456 9.3607 2.21882 9.67644 1.83808 9.67644Z" fill="white"/>
<path opacity="0.6" d="M17.1609 9.67636C16.7801 9.67636 16.4644 9.36062 16.4644 8.97988C16.4644 5.73893 14.0407 2.99946 10.8276 2.60943C10.4468 2.563 10.1775 2.21939 10.224 1.83865C10.2704 1.4579 10.6233 1.18863 11.004 1.23506C14.9136 1.70867 17.8666 5.04246 17.8666 8.98917C17.8574 9.36063 17.5509 9.67636 17.1609 9.67636Z" fill="white"/>
<path opacity="0.6" d="M10.6978 19.0464H8.31122C7.45688 19.0464 6.8254 18.3592 6.98326 17.6163L7.3733 15.8983H11.6358L12.0258 17.6163C12.2022 18.4056 11.6079 19.0464 10.6978 19.0464Z" fill="white"/>
<path d="M13.2802 14.4402L11.6365 15.8981H7.37406L5.73037 14.4402C4.77387 13.6601 4.77387 13.0565 5.49821 12.1372L8.39555 8.47834C8.59985 8.2276 8.83202 8.05117 9.08275 7.9676C9.35206 7.87473 9.64922 7.87473 9.91852 7.9676C10.1693 8.06046 10.4014 8.2276 10.6057 8.47834L13.5031 12.1372C14.2274 13.0565 14.1996 13.6323 13.2802 14.4402Z" fill="white"/>
</svg>
