<svg width="22" height="22" viewBox="0 0 22 22" fill="none" xmlns="http://www.w3.org/2000/svg">
<path d="M18.6999 6.6C20.5224 6.6 21.9999 5.12254 21.9999 3.3C21.9999 1.47746 20.5224 0 18.6999 0C16.8774 0 15.3999 1.47746 15.3999 3.3C15.3999 5.12254 16.8774 6.6 18.6999 6.6Z" fill="white"/>
<path d="M18.7 8.24998C15.972 8.24998 13.75 6.02798 13.75 3.29998C13.75 2.50798 13.959 1.77098 14.289 1.09998H6.072C2.277 1.09998 0 3.36598 0 7.17198V15.917C0 19.734 2.277 22 6.072 22H14.817C18.623 22 20.889 19.734 20.889 15.928V7.71098C20.229 8.04098 19.492 8.24998 18.7 8.24998Z" fill="white"/>
<path d="M10.7249 13.2H5.2249C4.7739 13.2 4.3999 12.826 4.3999 12.375C4.3999 11.924 4.7739 11.55 5.2249 11.55H10.7249C11.1759 11.55 11.5499 11.924 11.5499 12.375C11.5499 12.826 11.1759 13.2 10.7249 13.2Z" fill="#3771FE"/>
<path d="M15.1249 17.6H5.2249C4.7739 17.6 4.3999 17.226 4.3999 16.775C4.3999 16.324 4.7739 15.95 5.2249 15.95H15.1249C15.5759 15.95 15.9499 16.324 15.9499 16.775C15.9499 17.226 15.5759 17.6 15.1249 17.6Z" fill="#3771FE"/>
</svg>
