<svg width="26" height="18" viewBox="0 0 26 18" fill="none" xmlns="http://www.w3.org/2000/svg">
<path d="M19.0001 7.3263C18.4865 7.84419 18.1931 8.58946 18.2665 9.38525C18.3765 10.7495 19.5869 11.7474 20.9074 11.7474H23.2304V13.2505C23.2304 15.8652 21.1642 18 18.6333 18H4.59718C2.06629 18 0 15.8652 0 13.2505V4.74949C0 2.13475 2.06629 0 4.59718 0H18.6333C21.1642 0 23.2304 2.13475 23.2304 4.74949V6.56844H20.7607C20.076 6.56844 19.4524 6.8463 19.0001 7.3263Z" fill="white"/>
<path d="M22.777 13.263H22.7892L22.8014 13.2625C23.8677 13.219 24.5997 12.2654 24.5997 11.2396V8.3646C24.5997 7.33876 23.8677 6.38513 22.8014 6.34166L22.7892 6.34116H22.777H20.2339C19.3629 6.34116 18.5789 6.73319 18.0217 7.38334C17.3993 8.08005 17.0559 9.06361 17.1415 10.1001C17.2744 11.8995 18.7271 13.263 20.3806 13.263H22.777Z" fill="white" stroke="#3771FE" stroke-width="1.2"/>
<path d="M14.0605 6.31576H5.50195C5.00066 6.31576 4.58496 5.88628 4.58496 5.36839C4.58496 4.85049 5.00066 4.42102 5.50195 4.42102H14.0605C14.5618 4.42102 14.9775 4.85049 14.9775 5.36839C14.9775 5.88628 14.5618 6.31576 14.0605 6.31576Z" fill="#3771FE"/>
</svg>
