<svg width="19" height="24" viewBox="0 0 19 24" fill="none" xmlns="http://www.w3.org/2000/svg">
<path d="M14.4645 23.0588H4.4853C0.584757 23.0588 -0.259801 20.8252 0.0624661 18.0914L1.0626 9.75694C1.31819 7.60108 1.69602 5.83417 5.47433 5.83417H13.4755C17.2538 5.83417 17.6316 7.60108 17.8872 9.75694L18.7206 16.7024L18.8873 18.0914C18.8984 18.1803 18.9096 18.2692 18.9207 18.3581C19.154 20.9696 18.2428 23.0588 14.4645 23.0588Z" fill="white"/>
<path d="M13.9199 8.3345C13.4643 8.3345 13.0864 7.95667 13.0864 7.50105V3.61162C13.0864 2.41145 12.3419 1.6669 11.1417 1.6669H7.80791C6.60774 1.6669 5.86319 2.41145 5.86319 3.61162V7.50105C5.86319 7.95667 5.48536 8.3345 5.02974 8.3345C4.57412 8.3345 4.19629 7.95667 4.19629 7.50105V3.61162C4.19629 1.4891 5.68539 0 7.80791 0H11.1417C13.2642 0 14.7533 1.4891 14.7533 3.61162V7.50105C14.7533 7.95667 14.3755 8.3345 13.9199 8.3345Z" fill="white" fill-opacity="0.7"/>
<path d="M19.0001 18.6011C18.9764 18.6138 18.9527 18.6138 18.929 18.6138H9.11554C8.79132 18.6138 8.52246 18.182 8.52246 17.6613C8.52246 17.1278 8.79132 16.7087 9.11554 16.7087H18.8578L18.9764 18.2963C18.9843 18.3979 18.9922 18.4995 19.0001 18.6011Z" fill="#3771FE"/>
<path d="M19.0004 14.791C18.9896 14.8037 18.9788 14.8037 18.968 14.8037H14.5074C14.36 14.8037 14.2378 14.3719 14.2378 13.8512C14.2378 13.3178 14.36 12.8987 14.5074 12.8987H18.9357L18.9896 14.4862C18.9932 14.5878 18.9968 14.6894 19.0004 14.791Z" fill="#3771FE"/>
</svg>
