<svg width="22" height="24" viewBox="0 0 22 24" fill="none" xmlns="http://www.w3.org/2000/svg">
<path opacity="0.5" d="M21.9133 4.66423V7.48604C21.9133 9.32837 20.8177 10.4944 19.0865 10.4944H15.3394V2.34383C15.3394 1.04953 16.3364 -0.0115652 17.5526 9.51924e-05C18.7469 0.0117555 19.8425 0.524811 20.6314 1.36436C21.4203 2.21556 21.9133 3.3816 21.9133 4.66423Z" fill="white"/>
<path d="M0 5.83023V22.1547C0 23.1225 1.02992 23.6706 1.75306 23.0875L3.62665 21.595C4.06492 21.2452 4.67849 21.2919 5.07293 21.7116L6.89173 23.6589C7.31904 24.1137 8.02026 24.1137 8.44757 23.6589L10.2883 21.7C10.6718 21.2919 11.2853 21.2452 11.7127 21.595L13.5862 23.0875C14.3094 23.6589 15.3393 23.1109 15.3393 22.1547V2.33213C15.3393 1.04949 16.3254 6.10352e-05 17.5306 6.10352e-05H5.47832H4.38266C1.09566 6.10352e-05 0 2.08726 0 4.6642V5.83023Z" fill="white"/>
<path d="M10.9564 11.9637H7.6694C7.22018 11.9637 6.84766 12.3601 6.84766 12.8382C6.84766 13.3163 7.22018 13.7127 7.6694 13.7127H10.9564C11.4056 13.7127 11.7781 13.3163 11.7781 12.8382C11.7781 12.3601 11.4056 11.9637 10.9564 11.9637Z" fill="#3771FE"/>
<path d="M7.6694 9.04867H10.9564C11.4056 9.04867 11.7781 8.65222 11.7781 8.17415C11.7781 7.69607 11.4056 7.29962 10.9564 7.29962H7.6694C7.22018 7.29962 6.84766 7.69607 6.84766 8.17415C6.84766 8.65222 7.22018 9.04867 7.6694 9.04867Z" fill="#3771FE"/>
<path d="M4.34957 7.00806C3.736 7.00806 3.25391 7.53277 3.25391 8.17409C3.25391 8.81541 3.74696 9.34013 4.34957 9.34013C4.95219 9.34013 5.44524 8.81541 5.44524 8.17409C5.44524 7.53277 4.95219 7.00806 4.34957 7.00806Z" fill="#3771FE"/>
<path d="M4.34957 11.6721C3.736 11.6721 3.25391 12.1968 3.25391 12.8382C3.25391 13.4795 3.74696 14.0042 4.34957 14.0042C4.95219 14.0042 5.44524 13.4795 5.44524 12.8382C5.44524 12.1968 4.95219 11.6721 4.34957 11.6721Z" fill="#3771FE"/>
</svg>
