<svg width="15" height="14" viewBox="0 0 15 14" fill="none" xmlns="http://www.w3.org/2000/svg">
<path d="M7.35638 11.0737C7.09423 11.0737 6.87683 10.8472 6.87683 10.5741V9.17544C6.87683 8.90236 7.09423 8.6759 7.35638 8.6759C7.61854 8.6759 7.83594 8.90236 7.83594 9.17544V10.5741C7.83594 10.8472 7.61854 11.0737 7.35638 11.0737Z" fill="white" stroke="white" stroke-width="0.1"/>
<path d="M10.6925 13.0048H4.53394V12.0676C4.53394 11.2536 5.19263 10.5949 6.00664 10.5949H9.21981C10.0338 10.5949 10.6925 11.2536 10.6925 12.0676V13.0048ZM5.33723 12.2015H9.88922V12.0676C9.88922 11.6981 9.58932 11.3982 9.21981 11.3982H6.00664C5.63712 11.3982 5.33723 11.6981 5.33723 12.0676V12.2015Z" fill="white" stroke="white" stroke-width="0.1"/>
<path d="M10.8264 13.0048H4.40006C4.18049 13.0048 3.99841 12.8228 3.99841 12.6032C3.99841 12.3836 4.18049 12.2015 4.40006 12.2015H10.8264C11.046 12.2015 11.228 12.3836 11.228 12.6032C11.228 12.8228 11.046 13.0048 10.8264 13.0048Z" fill="white" stroke="white" stroke-width="0.1"/>
<path d="M11.098 6.94971C10.9519 6.94971 10.8057 6.90195 10.7013 6.81173C10.5691 6.69497 10.5343 6.53045 10.6178 6.39247C10.8544 5.97852 10.9727 5.53804 10.9727 5.07633V3.48421C10.9727 3.29847 10.931 3.11803 10.8475 2.92698C10.8405 2.91105 10.8335 2.88983 10.8266 2.8686C10.8057 2.78899 10.7987 2.70939 10.7987 2.63509C10.7987 2.4175 11.0354 2.23706 11.3207 2.23706H11.7383C12.984 2.23706 14 3.03312 14 4.01492C14 4.82689 13.5616 5.62826 12.803 6.20672C12.7891 6.21734 12.7473 6.24387 12.7404 6.24918C12.3298 6.50923 11.8635 6.80111 11.2372 6.93379C11.1885 6.9444 11.1467 6.94971 11.098 6.94971ZM11.9679 3.04904C12.0027 3.19233 12.0166 3.34092 12.0166 3.48421V5.07633C12.0166 5.29391 11.9957 5.50089 11.954 5.71317C11.9957 5.68663 12.0305 5.66541 12.0723 5.63887C12.629 5.21431 12.9561 4.61992 12.9561 4.01492C12.9561 3.53728 12.5316 3.13395 11.9679 3.04904Z" fill="white" stroke="white" stroke-width="0.1"/>
<path d="M3.9048 6.97107C3.8492 6.97107 3.80056 6.96572 3.74497 6.94965C3.17512 6.81041 2.64003 6.55336 2.19528 6.21062C1.39611 5.5305 1 4.78612 1 3.99889C1 3.02423 1.99375 2.25842 3.25852 2.25842H3.71022C3.88395 2.25842 4.05073 2.32804 4.14802 2.4405C4.24531 2.55296 4.25921 2.69756 4.18972 2.82073C4.07853 3.01352 4.02294 3.23308 4.02294 3.46336V5.06995C4.02294 5.5305 4.14107 5.98034 4.3843 6.40877C4.46769 6.55336 4.42599 6.71937 4.29396 6.83719C4.18972 6.92287 4.05073 6.97107 3.9048 6.97107ZM3.01529 3.07778C2.4524 3.16347 2.04239 3.53834 2.04239 3.99889C2.04239 4.58262 2.34816 5.14492 2.95275 5.65903C2.98054 5.6858 3.01529 5.70722 3.05004 5.72865C3.00139 5.50908 2.98054 5.28951 2.98054 5.06995V3.46336C2.98054 3.33483 2.99444 3.20631 3.01529 3.07778Z" fill="white" stroke="white" stroke-width="0.1"/>
<path d="M7.5334 9.30069C5.24669 9.30069 3.38306 7.43705 3.38306 5.15034V3.54376C3.38306 2.14067 4.52373 1 5.92682 1H9.13998C10.5431 1 11.6837 2.14067 11.6837 3.54376V5.15034C11.6837 7.43705 9.8201 9.30069 7.5334 9.30069ZM5.92682 1.80329C4.96822 1.80329 4.18635 2.58516 4.18635 3.54376V5.15034C4.18635 6.99791 5.68583 8.49739 7.5334 8.49739C9.38097 8.49739 10.8805 6.99791 10.8805 5.15034V3.54376C10.8805 2.58516 10.0986 1.80329 9.13998 1.80329H5.92682Z" fill="white" stroke="white" stroke-width="0.1"/>
</svg>
