<svg width="14" height="14" viewBox="0 0 14 14" fill="none" xmlns="http://www.w3.org/2000/svg">
<path d="M1.38082 13C1.52791 13 1.67501 12.9458 1.79114 12.8297L12.6298 1.99098C12.8543 1.76647 12.8543 1.39486 12.6298 1.17034C12.4053 0.945824 12.0337 0.945824 11.8092 1.17034L0.970496 12.009C0.74598 12.2335 0.74598 12.6052 0.970496 12.8297C1.08662 12.9458 1.23372 13 1.38082 13Z" fill="white" fill-opacity="0.5"/>
<path d="M1.8972 12.9357C1.75146 13.0815 1.56555 13.15 1.38082 13.15C1.19608 13.15 1.01017 13.0815 0.864429 12.9357C0.581335 12.6526 0.581335 12.1861 0.864429 11.903L11.7031 1.06427C11.9862 0.78118 12.4528 0.78118 12.7359 1.06427C13.019 1.34737 13.019 1.81396 12.7359 2.09705L1.8972 12.9357Z" stroke="white" stroke-opacity="0.5" stroke-width="0.3"/>
<path d="M12.2194 10.1122C12.5368 10.1122 12.8 9.84902 12.8 9.5316V1.58064C12.8 1.26323 12.5368 1 12.2194 1H4.26845C3.95103 1 3.6878 1.26323 3.6878 1.58064C3.6878 1.89806 3.95103 2.16129 4.26845 2.16129H11.6388V9.5316C11.6388 9.84902 11.902 10.1122 12.2194 10.1122Z" fill="white" fill-opacity="0.5"/>
<path d="M12.95 9.5316C12.95 9.93186 12.6197 10.2622 12.2194 10.2622C11.8191 10.2622 11.4888 9.93186 11.4888 9.5316V2.31129H4.26845C3.86819 2.31129 3.5378 1.98091 3.5378 1.58064C3.5378 1.18038 3.86819 0.85 4.26845 0.85H12.2194C12.6197 0.85 12.95 1.18038 12.95 1.58064V9.5316Z" stroke="white" stroke-opacity="0.5" stroke-width="0.3"/>
</svg>
