<svg width="8" height="11" viewBox="0 0 8 11" fill="none" xmlns="http://www.w3.org/2000/svg">
<path d="M6.72296 5.21408C6.66099 5.26479 6.59902 5.30422 6.52578 5.33803L5.9117 5.64789L4.18212 6.50986C3.87226 6.66761 3.37085 6.66761 3.06662 6.50986L1.33705 5.64789L0.722963 5.33803C0.655357 5.29859 0.593385 5.26479 0.525779 5.21408C-0.0714036 4.79718 -0.178446 4.03662 0.300427 3.4338L2.64972 0.504225C2.7962 0.323944 2.97085 0.188732 3.15113 0.109859C3.45536 -0.0366197 3.79339 -0.0366197 4.09198 0.109859C4.27226 0.188732 4.45254 0.323944 4.59339 0.504225L6.94268 3.4338C7.42719 4.04225 7.32015 4.80282 6.72296 5.21408Z" fill="#2895FF"/>
<path opacity="0.4" d="M6.72294 5.21407C6.66097 5.26477 6.599 5.30421 6.52576 5.33801L5.91167 5.64787L3.62435 3.92956L1.33702 5.6535L0.72294 5.34364C0.655334 5.30421 0.593362 5.2704 0.525757 5.2197C0.548292 5.11266 0.60463 5.01688 0.700405 4.94928L3.15111 3.10702V0.115474C3.45533 -0.0310045 3.79336 -0.0310045 4.09195 0.115474V3.10702L6.54266 4.94928C6.63843 5.01688 6.69477 5.10702 6.72294 5.21407Z" fill="#222222"/>
<path d="M1.80469 6.87049L2.71173 7.27612C3.29201 7.53528 3.9568 7.53528 4.54271 7.27612L5.44976 6.87049C6.26102 6.50993 7.01032 7.49021 6.44694 8.17753L4.49764 10.5606C4.01877 11.1465 3.23567 11.1465 2.75116 10.5606L0.807503 8.17753C0.238489 7.49021 0.987785 6.50993 1.80469 6.87049Z" fill="#2895FF"/>
</svg>
