<svg width="16" height="15" viewBox="0 0 16 15" fill="none" xmlns="http://www.w3.org/2000/svg">
<path d="M11.3684 8H4.63158C4.28632 8 4 7.77333 4 7.5C4 7.22667 4.28632 7 4.63158 7H11.3684C11.7137 7 12 7.22667 12 7.5C12 7.77333 11.7137 8 11.3684 8Z" fill="white" fill-opacity="0.5"/>
<path d="M8 11C7.72667 11 7.5 10.7495 7.5 10.4474V4.55263C7.5 4.25053 7.72667 4 8 4C8.27333 4 8.5 4.25053 8.5 4.55263V10.4474C8.5 10.7495 8.27333 11 8 11Z" fill="white" fill-opacity="0.5"/>
<path d="M10.2326 15H5.76744C1.72651 15 0 13.3814 0 9.59302V5.40698C0 1.6186 1.72651 0 5.76744 0H10.2326C14.2735 0 16 1.6186 16 5.40698V9.59302C16 13.3814 14.2735 15 10.2326 15ZM5.76744 1.04651C2.33674 1.04651 1.11628 2.1907 1.11628 5.40698V9.59302C1.11628 12.8093 2.33674 13.9535 5.76744 13.9535H10.2326C13.6633 13.9535 14.8837 12.8093 14.8837 9.59302V5.40698C14.8837 2.1907 13.6633 1.04651 10.2326 1.04651H5.76744Z" fill="white" fill-opacity="0.5"/>
</svg>
