<svg width="19" height="16" viewBox="0 0 19 16" fill="none" xmlns="http://www.w3.org/2000/svg">
<path d="M17.5 5.83333V10.1667C17.5 13.5 15.9 14.5 13.5 14.5H5.5C2.5 14.5 1.5 13 1.5 10.1667V5.83333C1.5 3 2.5 2 4.852 1.552C5.06 1.51733 5.276 1.5 5.5 1.5H13.5C13.708 1.5 13.908 1.50866 14.1 1.54332C16.5 2 17.5 3 17.5 5.83333Z" stroke="white" stroke-width="1.5" stroke-linecap="round" stroke-linejoin="round"/>
<path d="M9 5.03314H5" stroke="white" stroke-width="1.5" stroke-linecap="round" stroke-linejoin="round"/>
<path d="M17.2998 5.75061H14.8998C14.0198 5.75061 13.2998 6.65061 13.2998 7.75061C13.2998 8.85061 14.0198 9.75061 14.8998 9.75061H17.2998" stroke="white" stroke-width="1.5" stroke-linecap="round" stroke-linejoin="round"/>
</svg>
