<svg width="17" height="18" viewBox="0 0 17 18" fill="none" xmlns="http://www.w3.org/2000/svg">
<path d="M13.7081 6.08326C13.7081 4.73509 13.1726 3.44215 12.2193 2.48885C11.266 1.53556 9.97305 1 8.62488 1C7.27672 1 5.98377 1.53556 5.03048 2.48885C4.07718 3.44215 3.54163 4.73509 3.54163 6.08326C3.54163 12.0137 1 13.7081 1 13.7081H16.2498C16.2498 13.7081 13.7081 12.0137 13.7081 6.08326Z" stroke="white" stroke-opacity="0.5" stroke-width="1.5" stroke-linecap="round" stroke-linejoin="round"/>
<path d="M10.0905 16.1558C9.94157 16.4126 9.72778 16.6257 9.47056 16.7739C9.21333 16.922 8.9217 17 8.62485 17C8.32801 17 8.03637 16.922 7.77914 16.7739C7.52192 16.6257 7.30813 16.4126 7.15918 16.1558" stroke="white" stroke-opacity="0.5" stroke-width="1.5" stroke-linecap="round" stroke-linejoin="round"/>
</svg>
