<svg width="57" height="56" viewBox="0 0 57 56" fill="none" xmlns="http://www.w3.org/2000/svg">
<g filter="url(#filter0_bd_693_482)">
<path d="M35.7411 21.3164C34.9345 20.4711 33.838 20 32.6982 20H24.301C21.9201 20 20 22.0089 20 24.4889V31.5111C20 33.9911 21.9287 36 24.301 36H32.6982C35.0705 36 37 33.9911 37 31.5111V24.4889C37 23.2978 36.5486 22.16 35.7411 21.3164Z" fill="#F1F5FF" fill-opacity="0.4" shape-rendering="crispEdges"/>
</g>
<mask id="path-2-inside-1_693_482" fill="white">
<path d="M34.3344 25.7421L34.2664 25.8133L30.432 29.0221C29.9569 29.4133 29.3695 29.6266 28.7669 29.6266C28.1625 29.6266 27.5854 29.4133 27.1094 29.0221L23.2419 25.8666L23.1305 25.751C22.9359 25.4844 22.9614 25.1021 23.1909 24.8621C23.411 24.6221 23.7765 24.5955 24.0409 24.7999L27.8659 27.9999C28.3665 28.4275 29.0729 28.4275 29.5659 27.9999L33.3985 24.7999C33.5269 24.6755 33.6969 24.6124 33.8754 24.6221C34.0445 24.6399 34.2069 24.7208 34.325 24.8533C34.5375 25.111 34.5375 25.4844 34.3344 25.7421Z"/>
</mask>
<path d="M34.3344 25.7421L34.2664 25.8133L30.432 29.0221C29.9569 29.4133 29.3695 29.6266 28.7669 29.6266C28.1625 29.6266 27.5854 29.4133 27.1094 29.0221L23.2419 25.8666L23.1305 25.751C22.9359 25.4844 22.9614 25.1021 23.1909 24.8621C23.411 24.6221 23.7765 24.5955 24.0409 24.7999L27.8659 27.9999C28.3665 28.4275 29.0729 28.4275 29.5659 27.9999L33.3985 24.7999C33.5269 24.6755 33.6969 24.6124 33.8754 24.6221C34.0445 24.6399 34.2069 24.7208 34.325 24.8533C34.5375 25.111 34.5375 25.4844 34.3344 25.7421Z" fill="url(#paint0_linear_693_482)"/>
<path d="M34.2664 25.8133L34.3947 25.9666L34.4032 25.9595L34.4109 25.9515L34.2664 25.8133ZM30.432 29.0221L30.5591 29.1766L30.5604 29.1755L30.432 29.0221ZM27.1094 29.0221L27.2363 28.8676L27.2358 28.8672L27.1094 29.0221ZM23.2419 25.8666L23.0978 26.0054L23.1061 26.014L23.1154 26.0215L23.2419 25.8666ZM23.1305 25.751L22.969 25.8689L22.977 25.88L22.9865 25.8898L23.1305 25.751ZM23.1909 24.8621L23.3354 25.0004L23.3382 24.9973L23.1909 24.8621ZM24.0409 24.7999L24.1693 24.6464L24.1632 24.6417L24.0409 24.7999ZM27.8659 27.9999L27.9957 27.8478L27.9942 27.8465L27.8659 27.9999ZM29.5659 27.9999L29.4377 27.8464L29.4348 27.8488L29.5659 27.9999ZM33.3985 24.7999L33.5267 24.9534L33.5324 24.9487L33.5377 24.9435L33.3985 24.7999ZM33.8754 24.6221L33.8963 24.423L33.8863 24.4224L33.8754 24.6221ZM34.325 24.8533L34.4795 24.7259L34.4743 24.7201L34.325 24.8533ZM34.1898 25.6039L34.1218 25.675L34.4109 25.9515L34.4789 25.8804L34.1898 25.6039ZM34.138 25.6599L30.3037 28.8688L30.5604 29.1755L34.3947 25.9666L34.138 25.6599ZM30.3049 28.8677C29.8647 29.2301 29.322 29.4266 28.7669 29.4266V29.8266C29.417 29.8266 30.049 29.5964 30.5591 29.1766L30.3049 28.8677ZM28.7669 29.4266C28.2108 29.4266 27.6781 29.2306 27.2363 28.8676L26.9824 29.1767C27.4926 29.5959 28.1143 29.8266 28.7669 29.8266V29.4266ZM27.2358 28.8672L23.3683 25.7116L23.1154 26.0215L26.9829 29.1771L27.2358 28.8672ZM23.3859 25.7278L23.2745 25.6123L22.9865 25.8898L23.0978 26.0054L23.3859 25.7278ZM23.2921 25.6331C23.1547 25.445 23.1726 25.1707 23.3354 25.0004L23.0463 24.7239C22.7502 25.0336 22.717 25.5237 22.969 25.8689L23.2921 25.6331ZM23.3382 24.9973C23.4852 24.8372 23.7329 24.8146 23.9185 24.9581L24.1632 24.6417C23.8201 24.3764 23.3368 24.4071 23.0435 24.7269L23.3382 24.9973ZM23.9125 24.9533L27.7375 28.1533L27.9942 27.8465L24.1692 24.6465L23.9125 24.9533ZM27.736 28.152C28.3109 28.6429 29.1281 28.6443 29.6969 28.151L29.4348 27.8488C29.0176 28.2107 28.4222 28.212 27.9957 27.8478L27.736 28.152ZM29.694 28.1534L33.5267 24.9534L33.2703 24.6464L29.4377 27.8464L29.694 28.1534ZM33.5377 24.9435C33.6258 24.8581 33.7413 24.8151 33.8644 24.8218L33.8863 24.4224C33.6524 24.4096 33.4279 24.4928 33.2593 24.6563L33.5377 24.9435ZM33.8545 24.821C33.9747 24.8337 34.0911 24.8915 34.1758 24.9864L34.4743 24.7201C34.3226 24.5501 34.1143 24.4462 33.8963 24.4232L33.8545 24.821ZM34.1707 24.9805C34.3226 25.1647 34.3229 25.4335 34.1773 25.6183L34.4914 25.8659C34.7521 25.5352 34.7525 25.0574 34.4793 24.726L34.1707 24.9805Z" fill="url(#paint1_linear_693_482)" fill-opacity="0.5" mask="url(#path-2-inside-1_693_482)"/>
<defs>
<filter id="filter0_bd_693_482" x="0" y="0" width="57" height="56" filterUnits="userSpaceOnUse" color-interpolation-filters="sRGB">
<feFlood flood-opacity="0" result="BackgroundImageFix"/>
<feGaussianBlur in="BackgroundImage" stdDeviation="7"/>
<feComposite in2="SourceAlpha" operator="in" result="effect1_backgroundBlur_693_482"/>
<feColorMatrix in="SourceAlpha" type="matrix" values="0 0 0 0 0 0 0 0 0 0 0 0 0 0 0 0 0 0 127 0" result="hardAlpha"/>
<feOffset/>
<feGaussianBlur stdDeviation="10"/>
<feComposite in2="hardAlpha" operator="out"/>
<feColorMatrix type="matrix" values="0 0 0 0 1 0 0 0 0 1 0 0 0 0 1 0 0 0 0.1 0"/>
<feBlend mode="normal" in2="effect1_backgroundBlur_693_482" result="effect2_dropShadow_693_482"/>
<feBlend mode="normal" in="SourceGraphic" in2="effect2_dropShadow_693_482" result="shape"/>
</filter>
<linearGradient id="paint0_linear_693_482" x1="33.6713" y1="25.525" x2="20.9351" y2="26.4779" gradientUnits="userSpaceOnUse">
<stop stop-color="white"/>
<stop offset="1" stop-color="white" stop-opacity="0.2"/>
</linearGradient>
<linearGradient id="paint1_linear_693_482" x1="33.9935" y1="27.2297" x2="22.9088" y2="28.2894" gradientUnits="userSpaceOnUse">
<stop stop-color="white"/>
<stop offset="1" stop-color="white" stop-opacity="0"/>
</linearGradient>
</defs>
</svg>
