<svg width="57" height="50" viewBox="0 0 57 50" fill="none" xmlns="http://www.w3.org/2000/svg">
<path d="M33.7204 18.5301V20.2506C33.3599 20.2015 32.9503 20.1769 32.4915 20.1687V18.5301C32.4915 15.9494 31.7623 14.2289 28.1903 14.2289C24.6182 14.2289 23.8891 15.9494 23.8891 18.5301V20.1687C23.4303 20.1769 23.0206 20.2015 22.6602 20.2506V18.5301C22.6602 16.1542 23.2337 13 28.1903 13C33.1469 13 33.7204 16.1542 33.7204 18.5301Z" fill="url(#paint0_linear_693_498)"/>
<path d="M33.6204 18.5301V20.137C33.31 20.1 32.9669 20.0795 32.5915 20.0707V18.5301C32.5915 17.2353 32.4098 16.1289 31.7571 15.3476C31.1011 14.5623 29.9901 14.1289 28.1903 14.1289C26.3905 14.1289 25.2795 14.5623 24.6234 15.3476C23.9708 16.1289 23.7891 17.2353 23.7891 18.5301V20.0707C23.4137 20.0795 23.0705 20.1 22.7602 20.137V18.5301C22.7602 17.3464 22.904 15.9906 23.6483 14.9316C24.3875 13.8798 25.7347 13.1 28.1903 13.1C30.6459 13.1 31.993 13.8798 32.7323 14.9316C33.4766 15.9906 33.6204 17.3464 33.6204 18.5301Z" stroke="url(#paint1_linear_693_498)" stroke-opacity="0.5" stroke-width="0.2"/>
<g filter="url(#filter0_bd_693_498)">
<path d="M36.3855 24.2651V25.9036C36.3855 29.1807 35.5663 30 32.2892 30H24.0964C20.8193 30 20 29.1807 20 25.9036V24.2651C20 21.5287 20.5735 20.5046 22.6627 20.2506C23.0231 20.2014 23.4328 20.1769 23.8916 20.1687H32.494C32.9528 20.1769 33.3624 20.2014 33.7229 20.2506C35.812 20.5046 36.3855 21.5287 36.3855 24.2651Z" fill="white" fill-opacity="0.4" shape-rendering="crispEdges"/>
</g>
<path d="M24.913 25.9036C24.8065 25.9036 24.7 25.879 24.6017 25.8381C24.4952 25.7971 24.4133 25.7398 24.3313 25.666C24.1839 25.5104 24.0938 25.2974 24.0938 25.0843C24.0938 24.9778 24.1183 24.8713 24.1593 24.773C24.2002 24.6747 24.2576 24.5846 24.3313 24.5027C24.4133 24.4289 24.4952 24.3716 24.6017 24.3306C24.9048 24.1995 25.2653 24.2733 25.4947 24.5027C25.5684 24.5846 25.6258 24.6747 25.6668 24.773C25.7077 24.8713 25.7323 24.9778 25.7323 25.0843C25.7323 25.2974 25.6422 25.5104 25.4947 25.666C25.339 25.8135 25.126 25.9036 24.913 25.9036Z" fill="url(#paint2_linear_693_498)"/>
<path d="M24.6402 25.7458L24.6402 25.7457L24.6376 25.7447C24.5469 25.7099 24.4759 25.6612 24.4012 25.5944C24.2718 25.4563 24.1938 25.2688 24.1938 25.0843C24.1938 24.993 24.2149 24.8996 24.2516 24.8115C24.2874 24.7255 24.3374 24.6462 24.4022 24.5734C24.4765 24.5071 24.5473 24.4587 24.6376 24.4239L24.6376 24.424L24.6414 24.4224C24.9053 24.3083 25.2211 24.372 25.4221 24.5715C25.4877 24.6448 25.5383 24.7247 25.5745 24.8115C25.6112 24.8996 25.6323 24.993 25.6323 25.0843C25.6323 25.2692 25.5539 25.4571 25.424 25.5953C25.2858 25.7253 25.0979 25.8036 24.913 25.8036C24.8217 25.8036 24.7282 25.7825 24.6402 25.7458Z" stroke="url(#paint3_linear_693_498)" stroke-opacity="0.5" stroke-width="0.2"/>
<path d="M28.1904 25.9037C27.9692 25.9037 27.7644 25.8136 27.6087 25.6661C27.535 25.5842 27.4776 25.494 27.4366 25.3957C27.3957 25.2974 27.3711 25.1909 27.3711 25.0844C27.3711 24.8632 27.4612 24.6584 27.6087 24.5027C27.9118 24.1996 28.4607 24.1996 28.7721 24.5027C28.9195 24.6584 29.0096 24.8632 29.0096 25.0844C29.0096 25.1909 28.9851 25.2974 28.9441 25.3957C28.9032 25.494 28.8458 25.5842 28.7721 25.6661C28.6164 25.8136 28.4034 25.9037 28.1904 25.9037Z" fill="url(#paint4_linear_693_498)"/>
<path d="M28.1904 25.8037C27.9983 25.8037 27.8187 25.726 27.6804 25.5962C27.6152 25.5232 27.5649 25.4436 27.5289 25.3573C27.4922 25.2692 27.4711 25.1757 27.4711 25.0844C27.4711 24.8914 27.5495 24.7111 27.6803 24.5725C27.9437 24.3103 28.4279 24.3088 28.7009 24.573C28.8315 24.7115 28.9096 24.8917 28.9096 25.0844C28.9096 25.1757 28.8885 25.2692 28.8518 25.3573C28.8158 25.4436 28.7655 25.5232 28.7004 25.5962C28.5623 25.7257 28.3748 25.8037 28.1904 25.8037Z" stroke="url(#paint5_linear_693_498)" stroke-opacity="0.5" stroke-width="0.2"/>
<path d="M31.4755 25.9036C31.2625 25.9036 31.0495 25.8135 30.8938 25.6661C30.7464 25.5104 30.6562 25.3056 30.6562 25.0844C30.6562 24.8632 30.7464 24.6583 30.8938 24.5027C31.2052 24.1995 31.7541 24.1995 32.0572 24.5027C32.09 24.5436 32.1227 24.5846 32.1555 24.6338C32.1883 24.6747 32.2129 24.7239 32.2293 24.773C32.2539 24.8222 32.2702 24.8714 32.2784 24.9205C32.2866 24.9779 32.2948 25.0352 32.2948 25.0844C32.2948 25.2974 32.2047 25.5104 32.0572 25.6661C31.9015 25.8135 31.6885 25.9036 31.4755 25.9036Z" fill="url(#paint6_linear_693_498)"/>
<path d="M32.0723 24.6892L32.072 24.6894L32.0774 24.6962C32.1014 24.7263 32.121 24.7644 32.1344 24.8047L32.1367 24.8114L32.1398 24.8178C32.1602 24.8585 32.1731 24.8978 32.1796 24.9359C32.188 24.9947 32.1948 25.044 32.1948 25.0844C32.1948 25.2692 32.1164 25.4572 31.9865 25.5953C31.8483 25.7253 31.6604 25.8036 31.4755 25.8036C31.2907 25.8036 31.1028 25.7253 30.9646 25.5953C30.8343 25.4568 30.7563 25.2769 30.7563 25.0844C30.7563 24.8916 30.8344 24.7115 30.965 24.5729C31.237 24.3098 31.7188 24.3103 31.9827 24.5696C32.0143 24.6091 32.0434 24.6458 32.0723 24.6892Z" stroke="url(#paint7_linear_693_498)" stroke-opacity="0.5" stroke-width="0.2"/>
<defs>
<filter id="filter0_bd_693_498" x="0" y="0.168671" width="56.3867" height="49.8313" filterUnits="userSpaceOnUse" color-interpolation-filters="sRGB">
<feFlood flood-opacity="0" result="BackgroundImageFix"/>
<feGaussianBlur in="BackgroundImage" stdDeviation="7"/>
<feComposite in2="SourceAlpha" operator="in" result="effect1_backgroundBlur_693_498"/>
<feColorMatrix in="SourceAlpha" type="matrix" values="0 0 0 0 0 0 0 0 0 0 0 0 0 0 0 0 0 0 127 0" result="hardAlpha"/>
<feOffset/>
<feGaussianBlur stdDeviation="10"/>
<feComposite in2="hardAlpha" operator="out"/>
<feColorMatrix type="matrix" values="0 0 0 0 1 0 0 0 0 1 0 0 0 0 1 0 0 0 0.1 0"/>
<feBlend mode="normal" in2="effect1_backgroundBlur_693_498" result="effect2_dropShadow_693_498"/>
<feBlend mode="normal" in="SourceGraphic" in2="effect2_dropShadow_693_498" result="shape"/>
</filter>
<linearGradient id="paint0_linear_693_498" x1="28.1927" y1="13" x2="8.40457" y2="18.36" gradientUnits="userSpaceOnUse">
<stop stop-color="white"/>
<stop offset="1" stop-color="white" stop-opacity="0.2"/>
</linearGradient>
<linearGradient id="paint1_linear_693_498" x1="33.2465" y1="16.7787" x2="3.62873" y2="34.3683" gradientUnits="userSpaceOnUse">
<stop stop-color="white"/>
<stop offset="1" stop-color="white" stop-opacity="0.6"/>
</linearGradient>
<linearGradient id="paint2_linear_693_498" x1="25.6161" y1="24.5617" x2="23.7909" y2="24.6212" gradientUnits="userSpaceOnUse">
<stop stop-color="white"/>
<stop offset="1" stop-color="white" stop-opacity="0.2"/>
</linearGradient>
<linearGradient id="paint3_linear_693_498" x1="25.6621" y1="25.1194" x2="24.0691" y2="25.1858" gradientUnits="userSpaceOnUse">
<stop stop-color="white"/>
<stop offset="1" stop-color="white" stop-opacity="0"/>
</linearGradient>
<linearGradient id="paint4_linear_693_498" x1="28.8935" y1="24.5694" x2="27.0683" y2="24.6293" gradientUnits="userSpaceOnUse">
<stop stop-color="white"/>
<stop offset="1" stop-color="white" stop-opacity="0.2"/>
</linearGradient>
<linearGradient id="paint5_linear_693_498" x1="28.9394" y1="25.124" x2="27.3464" y2="25.1907" gradientUnits="userSpaceOnUse">
<stop stop-color="white"/>
<stop offset="1" stop-color="white" stop-opacity="0"/>
</linearGradient>
<linearGradient id="paint6_linear_693_498" x1="32.1786" y1="24.5694" x2="30.3535" y2="24.6293" gradientUnits="userSpaceOnUse">
<stop stop-color="white"/>
<stop offset="1" stop-color="white" stop-opacity="0.2"/>
</linearGradient>
<linearGradient id="paint7_linear_693_498" x1="32.2246" y1="25.1239" x2="30.6316" y2="25.1907" gradientUnits="userSpaceOnUse">
<stop stop-color="white"/>
<stop offset="1" stop-color="white" stop-opacity="0"/>
</linearGradient>
</defs>
</svg>
